<svg width="1165" height="896" viewBox="0 0 1165 896" fill="none" xmlns="http://www.w3.org/2000/svg">
<rect width="1165" height="726" fill="white"/>
<rect x="70" width="67" height="726" fill="#D9D9D9"/>
<rect x="157" width="67" height="726" fill="#D9D9D9"/>
<rect x="244" width="67" height="726" fill="#D9D9D9"/>
<rect x="331" width="67" height="726" fill="#D9D9D9"/>
<rect x="418" width="67" height="726" fill="#D9D9D9"/>
<rect x="505" width="67" height="726" fill="#D9D9D9"/>
<rect x="593" width="67" height="726" fill="#D9D9D9"/>
<rect x="681" width="67" height="726" fill="#D9D9D9"/>
<rect x="767" width="67" height="726" fill="#D9D9D9"/>
<rect x="855" width="67" height="726" fill="#D9D9D9"/>
<rect x="941" width="67" height="726" fill="#D9D9D9"/>
<rect x="1027" width="67" height="726" fill="#D9D9D9"/>
<path d="M0 819H1165" stroke="white" stroke-width="2"/>
<path d="M552.255 758.273V783H547.776V762.631H547.631L541.847 766.326V762.221L547.993 758.273H552.255ZM558.138 778.412V774.85L568.63 758.273H571.6V763.344H569.789L562.726 774.536V774.729H577.371V778.412H558.138ZM569.934 783V777.325L569.982 775.732V758.273H574.208V783H569.934ZM580.833 778.412V774.85L591.325 758.273H594.296V763.344H592.484L585.421 774.536V774.729H600.067V778.412H580.833ZM592.629 783V777.325L592.678 775.732V758.273H596.903V783H592.629ZM613.115 783.471C611.127 783.471 609.421 782.968 607.996 781.962C606.579 780.947 605.489 779.487 604.724 777.579C603.967 775.663 603.589 773.357 603.589 770.661C603.597 767.964 603.979 765.67 604.736 763.778C605.501 761.879 606.591 760.43 608.008 759.432C609.433 758.434 611.135 757.935 613.115 757.935C615.095 757.935 616.798 758.434 618.223 759.432C619.647 760.43 620.738 761.879 621.495 763.778C622.259 765.678 622.642 767.972 622.642 770.661C622.642 773.365 622.259 775.675 621.495 777.591C620.738 779.499 619.647 780.955 618.223 781.962C616.806 782.968 615.104 783.471 613.115 783.471ZM613.115 779.692C614.661 779.692 615.88 778.931 616.774 777.41C617.675 775.88 618.126 773.631 618.126 770.661C618.126 768.696 617.921 767.046 617.51 765.71C617.1 764.374 616.52 763.368 615.772 762.692C615.023 762.008 614.138 761.665 613.115 761.665C611.578 761.665 610.363 762.43 609.469 763.96C608.576 765.481 608.125 767.714 608.117 770.661C608.109 772.633 608.306 774.291 608.708 775.635C609.119 776.979 609.698 777.993 610.447 778.678C611.196 779.354 612.085 779.692 613.115 779.692Z" fill="white"/>
<path d="M11.9943 852.273H15.5682L23.9716 872.798H24.2614L32.6648 852.273H36.2386V877H33.4375V858.213H33.196L25.4688 877H22.7642L15.0369 858.213H14.7955V877H11.9943V852.273ZM47.3644 877.435C46.1892 877.435 45.1227 877.213 44.1648 876.771C43.207 876.32 42.4463 875.672 41.8829 874.827C41.3194 873.973 41.0377 872.943 41.0377 871.736C41.0377 870.673 41.247 869.812 41.6655 869.152C42.0841 868.484 42.6435 867.961 43.3438 867.582C44.0441 867.204 44.8168 866.922 45.662 866.737C46.5152 866.544 47.3724 866.391 48.2337 866.278C49.3606 866.134 50.2742 866.025 50.9745 865.952C51.6828 865.872 52.198 865.739 52.5199 865.554C52.8499 865.369 53.015 865.047 53.015 864.588V864.491C53.015 863.3 52.689 862.375 52.037 861.714C51.393 861.054 50.4151 860.724 49.103 860.724C47.7427 860.724 46.6762 861.022 45.9035 861.618C45.1307 862.214 44.5874 862.849 44.2735 863.526L41.5689 862.56C42.0519 861.433 42.6958 860.555 43.5008 859.928C44.3137 859.292 45.1991 858.849 46.157 858.599C47.1229 858.342 48.0727 858.213 49.0064 858.213C49.6021 858.213 50.2863 858.286 51.059 858.43C51.8398 858.567 52.5924 858.853 53.3168 859.288C54.0493 859.722 54.657 860.378 55.14 861.256C55.6229 862.133 55.8644 863.308 55.8644 864.781V877H53.015V874.489H52.8701C52.6769 874.891 52.3549 875.322 51.9042 875.781C51.4534 876.239 50.8537 876.63 50.1052 876.952C49.3566 877.274 48.443 877.435 47.3644 877.435ZM47.799 874.875C48.9259 874.875 49.8758 874.654 50.6485 874.211C51.4293 873.768 52.0169 873.197 52.4113 872.496C52.8137 871.796 53.015 871.06 53.015 870.287V867.679C52.8942 867.824 52.6286 867.957 52.2181 868.077C51.8156 868.19 51.3488 868.291 50.8175 868.379C50.2943 868.46 49.7832 868.532 49.2841 868.597C48.7931 868.653 48.3947 868.701 48.0888 868.741C47.3483 868.838 46.6561 868.995 46.0121 869.212C45.3762 869.422 44.8611 869.74 44.4667 870.166C44.0803 870.585 43.8871 871.156 43.8871 871.881C43.8871 872.871 44.2534 873.619 44.9858 874.126C45.7264 874.625 46.6641 874.875 47.799 874.875ZM61.1162 877V858.455H63.869V861.256H64.0622C64.4003 860.338 65.012 859.594 65.8975 859.022C66.7829 858.451 67.781 858.165 68.8918 858.165C69.1011 858.165 69.3627 858.169 69.6766 858.177C69.9905 858.185 70.2279 858.197 70.3889 858.213V861.111C70.2923 861.087 70.071 861.05 69.7249 861.002C69.3868 860.946 69.0286 860.918 68.6503 860.918C67.7488 860.918 66.9439 861.107 66.2355 861.485C65.5352 861.855 64.9798 862.371 64.5693 863.031C64.1669 863.683 63.9656 864.427 63.9656 865.264V877H61.1162ZM80.7389 884.341C79.3625 884.341 78.1793 884.164 77.1892 883.81C76.1992 883.464 75.3741 883.005 74.7141 882.433C74.0621 881.87 73.5429 881.266 73.1566 880.622L75.4264 879.028C75.684 879.366 76.01 879.753 76.4044 880.188C76.7988 880.63 77.3381 881.013 78.0223 881.335C78.7146 881.665 79.6201 881.83 80.7389 881.83C82.2361 881.83 83.4717 881.467 84.4456 880.743C85.4196 880.018 85.9066 878.884 85.9066 877.338V873.571H85.6651C85.4558 873.909 85.158 874.328 84.7716 874.827C84.3933 875.318 83.8459 875.756 83.1296 876.143C82.4212 876.521 81.4634 876.71 80.256 876.71C78.7588 876.71 77.4146 876.356 76.2233 875.648C75.0401 874.939 74.1023 873.909 73.4101 872.557C72.7259 871.205 72.3838 869.562 72.3838 867.631C72.3838 865.731 72.7179 864.077 73.386 862.668C74.054 861.252 74.9837 860.157 76.175 859.384C77.3663 858.603 78.7427 858.213 80.3043 858.213C81.5117 858.213 82.4695 858.414 83.1779 858.817C83.8942 859.211 84.4416 859.662 84.8199 860.169C85.2063 860.668 85.5041 861.079 85.7134 861.401H86.0031V858.455H88.756V877.531C88.756 879.125 88.3938 880.421 87.6693 881.419C86.953 882.425 85.987 883.162 84.7716 883.629C83.5642 884.103 82.22 884.341 80.7389 884.341ZM80.6423 874.151C81.7853 874.151 82.7512 873.889 83.5401 873.366C84.3289 872.843 84.9286 872.09 85.3391 871.108C85.7496 870.126 85.9548 868.951 85.9548 867.582C85.9548 866.246 85.7536 865.067 85.3512 864.045C84.9487 863.022 84.353 862.222 83.5642 861.642C82.7754 861.062 81.8014 860.773 80.6423 860.773C79.435 860.773 78.4288 861.079 77.6239 861.69C76.827 862.302 76.2273 863.123 75.8249 864.153C75.4305 865.184 75.2333 866.327 75.2333 867.582C75.2333 868.87 75.4345 870.009 75.8369 870.999C76.2475 871.981 76.8512 872.754 77.648 873.317C78.453 873.873 79.4511 874.151 80.6423 874.151ZM94.0229 877V858.455H96.8723V877H94.0229ZM95.4718 855.364C94.9164 855.364 94.4374 855.174 94.035 854.796C93.6406 854.418 93.4433 853.963 93.4433 853.432C93.4433 852.901 93.6406 852.446 94.035 852.067C94.4374 851.689 94.9164 851.5 95.4718 851.5C96.0272 851.5 96.5021 851.689 96.8965 852.067C97.2989 852.446 97.5002 852.901 97.5002 853.432C97.5002 853.963 97.2989 854.418 96.8965 854.796C96.5021 855.174 96.0272 855.364 95.4718 855.364ZM104.992 865.844V877H102.142V858.455H104.895V861.352H105.137C105.571 860.411 106.231 859.654 107.117 859.082C108.002 858.503 109.145 858.213 110.546 858.213C111.801 858.213 112.9 858.471 113.842 858.986C114.784 859.493 115.516 860.266 116.039 861.304C116.562 862.334 116.824 863.638 116.824 865.216V877H113.975V865.409C113.975 863.952 113.596 862.817 112.84 862.004C112.083 861.183 111.045 860.773 109.725 860.773C108.815 860.773 108.002 860.97 107.286 861.364C106.577 861.759 106.018 862.334 105.607 863.091C105.197 863.848 104.992 864.765 104.992 865.844ZM124.159 877.193C123.563 877.193 123.052 876.98 122.625 876.553C122.199 876.127 121.985 875.616 121.985 875.02C121.985 874.424 122.199 873.913 122.625 873.487C123.052 873.06 123.563 872.847 124.159 872.847C124.754 872.847 125.265 873.06 125.692 873.487C126.119 873.913 126.332 874.424 126.332 875.02C126.332 875.414 126.231 875.777 126.03 876.107C125.837 876.437 125.575 876.702 125.245 876.903C124.923 877.097 124.561 877.193 124.159 877.193ZM124.159 863.429C123.563 863.429 123.052 863.216 122.625 862.789C122.199 862.362 121.985 861.851 121.985 861.256C121.985 860.66 122.199 860.149 122.625 859.722C123.052 859.296 123.563 859.082 124.159 859.082C124.754 859.082 125.265 859.296 125.692 859.722C126.119 860.149 126.332 860.66 126.332 861.256C126.332 861.65 126.231 862.012 126.03 862.342C125.837 862.672 125.575 862.938 125.245 863.139C124.923 863.332 124.561 863.429 124.159 863.429ZM141.834 877L152.894 855.122V854.929H140.144V852.273H155.985V855.074L144.973 877H141.834ZM168.07 877.338C166.251 877.338 164.702 876.843 163.422 875.853C162.142 874.855 161.164 873.41 160.488 871.518C159.812 869.619 159.474 867.325 159.474 864.636C159.474 861.964 159.812 859.682 160.488 857.79C161.172 855.891 162.154 854.442 163.434 853.444C164.722 852.438 166.267 851.935 168.07 851.935C169.873 851.935 171.415 852.438 172.695 853.444C173.982 854.442 174.965 855.891 175.641 857.79C176.325 859.682 176.667 861.964 176.667 864.636C176.667 867.325 176.329 869.619 175.653 871.518C174.977 873.41 173.999 874.855 172.719 875.853C171.439 876.843 169.889 877.338 168.07 877.338ZM168.07 874.682C169.873 874.682 171.274 873.812 172.272 872.074C173.27 870.335 173.769 867.856 173.769 864.636C173.769 862.495 173.54 860.672 173.081 859.167C172.63 857.662 171.978 856.515 171.125 855.726C170.28 854.937 169.262 854.543 168.07 854.543C166.283 854.543 164.887 855.424 163.881 857.187C162.875 858.942 162.371 861.425 162.371 864.636C162.371 866.777 162.597 868.597 163.048 870.094C163.498 871.591 164.146 872.73 164.991 873.511C165.845 874.291 166.871 874.682 168.07 874.682Z" fill="white"/>
<path d="M219.898 860C219.632 859.187 219.282 858.459 218.847 857.815C218.421 857.163 217.91 856.607 217.314 856.148C216.726 855.69 216.058 855.339 215.31 855.098C214.561 854.857 213.74 854.736 212.847 854.736C211.382 854.736 210.049 855.114 208.85 855.871C207.651 856.627 206.697 857.742 205.989 859.215C205.28 860.688 204.926 862.495 204.926 864.636C204.926 866.777 205.284 868.585 206.001 870.058C206.717 871.531 207.687 872.645 208.911 873.402C210.134 874.159 211.51 874.537 213.04 874.537C214.456 874.537 215.704 874.235 216.783 873.631C217.869 873.02 218.714 872.158 219.318 871.048C219.93 869.929 220.236 868.613 220.236 867.099L221.153 867.293H213.716V864.636H223.134V867.293C223.134 869.329 222.699 871.1 221.83 872.605C220.968 874.11 219.777 875.277 218.256 876.107C216.742 876.928 215.004 877.338 213.04 877.338C210.85 877.338 208.927 876.823 207.268 875.793C205.618 874.762 204.33 873.297 203.405 871.398C202.487 869.498 202.028 867.244 202.028 864.636C202.028 862.68 202.29 860.922 202.813 859.36C203.344 857.79 204.093 856.454 205.059 855.352C206.025 854.249 207.168 853.404 208.488 852.816C209.808 852.228 211.261 851.935 212.847 851.935C214.151 851.935 215.366 852.132 216.493 852.526C217.628 852.913 218.638 853.464 219.523 854.18C220.417 854.889 221.161 855.738 221.757 856.728C222.353 857.71 222.763 858.801 222.989 860H219.898ZM239.614 869.418V858.455H242.463V877H239.614V873.861H239.421C238.986 874.803 238.31 875.603 237.392 876.263C236.475 876.915 235.316 877.241 233.915 877.241C232.756 877.241 231.726 876.988 230.824 876.481C229.923 875.966 229.214 875.193 228.699 874.163C228.184 873.124 227.927 871.816 227.927 870.239V858.455H230.776V870.045C230.776 871.398 231.154 872.476 231.911 873.281C232.676 874.086 233.65 874.489 234.833 874.489C235.541 874.489 236.262 874.308 236.994 873.945C237.735 873.583 238.354 873.028 238.853 872.279C239.36 871.531 239.614 870.577 239.614 869.418ZM255.799 858.455V860.869H246.188V858.455H255.799ZM248.989 854.011H251.839V871.688C251.839 872.492 251.955 873.096 252.189 873.499C252.43 873.893 252.736 874.159 253.106 874.295C253.485 874.424 253.883 874.489 254.302 874.489C254.615 874.489 254.873 874.473 255.074 874.44C255.276 874.4 255.437 874.368 255.557 874.344L256.137 876.903C255.944 876.976 255.674 877.048 255.328 877.121C254.982 877.201 254.543 877.241 254.012 877.241C253.207 877.241 252.418 877.068 251.645 876.722C250.881 876.376 250.245 875.849 249.738 875.141C249.239 874.432 248.989 873.539 248.989 872.46V854.011ZM268.201 858.455V860.869H258.59V858.455H268.201ZM261.392 854.011H264.241V871.688C264.241 872.492 264.358 873.096 264.591 873.499C264.833 873.893 265.139 874.159 265.509 874.295C265.887 874.424 266.286 874.489 266.704 874.489C267.018 874.489 267.276 874.473 267.477 874.44C267.678 874.4 267.839 874.368 267.96 874.344L268.539 876.903C268.346 876.976 268.077 877.048 267.73 877.121C267.384 877.201 266.946 877.241 266.414 877.241C265.609 877.241 264.821 877.068 264.048 876.722C263.283 876.376 262.647 875.849 262.14 875.141C261.641 874.432 261.392 873.539 261.392 872.46V854.011ZM280.115 877.386C278.328 877.386 276.787 876.992 275.491 876.203C274.203 875.406 273.209 874.295 272.508 872.871C271.816 871.438 271.47 869.772 271.47 867.872C271.47 865.973 271.816 864.298 272.508 862.849C273.209 861.393 274.183 860.258 275.43 859.445C276.686 858.624 278.151 858.213 279.825 858.213C280.791 858.213 281.745 858.374 282.687 858.696C283.628 859.018 284.486 859.541 285.258 860.266C286.031 860.982 286.647 861.932 287.106 863.115C287.564 864.298 287.794 865.755 287.794 867.486V868.693H273.498V866.23H284.896C284.896 865.184 284.687 864.25 284.268 863.429C283.858 862.608 283.27 861.96 282.505 861.485C281.749 861.01 280.855 860.773 279.825 860.773C278.69 860.773 277.708 861.054 276.879 861.618C276.058 862.173 275.426 862.898 274.983 863.791C274.541 864.685 274.319 865.643 274.319 866.665V868.307C274.319 869.707 274.561 870.895 275.044 871.869C275.535 872.835 276.215 873.571 277.084 874.078C277.954 874.577 278.964 874.827 280.115 874.827C280.863 874.827 281.54 874.722 282.143 874.513C282.755 874.295 283.282 873.973 283.725 873.547C284.168 873.112 284.51 872.573 284.751 871.929L287.504 872.702C287.214 873.635 286.727 874.456 286.043 875.165C285.359 875.865 284.514 876.412 283.508 876.807C282.501 877.193 281.371 877.386 280.115 877.386ZM292.179 877V858.455H294.932V861.256H295.125C295.463 860.338 296.075 859.594 296.961 859.022C297.846 858.451 298.844 858.165 299.955 858.165C300.164 858.165 300.426 858.169 300.74 858.177C301.054 858.185 301.291 858.197 301.452 858.213V861.111C301.355 861.087 301.134 861.05 300.788 861.002C300.45 860.946 300.092 860.918 299.713 860.918C298.812 860.918 298.007 861.107 297.299 861.485C296.598 861.855 296.043 862.371 295.632 863.031C295.23 863.683 295.029 864.427 295.029 865.264V877H292.179ZM306.957 877.193C306.362 877.193 305.851 876.98 305.424 876.553C304.997 876.127 304.784 875.616 304.784 875.02C304.784 874.424 304.997 873.913 305.424 873.487C305.851 873.06 306.362 872.847 306.957 872.847C307.553 872.847 308.064 873.06 308.491 873.487C308.917 873.913 309.131 874.424 309.131 875.02C309.131 875.414 309.03 875.777 308.829 876.107C308.636 876.437 308.374 876.702 308.044 876.903C307.722 877.097 307.36 877.193 306.957 877.193ZM306.957 863.429C306.362 863.429 305.851 863.216 305.424 862.789C304.997 862.362 304.784 861.851 304.784 861.256C304.784 860.66 304.997 860.149 305.424 859.722C305.851 859.296 306.362 859.082 306.957 859.082C307.553 859.082 308.064 859.296 308.491 859.722C308.917 860.149 309.131 860.66 309.131 861.256C309.131 861.65 309.03 862.012 308.829 862.342C308.636 862.672 308.374 862.938 308.044 863.139C307.722 863.332 307.36 863.429 306.957 863.429ZM323.86 877V874.827L332.022 865.892C332.98 864.846 333.769 863.936 334.389 863.163C335.008 862.383 335.467 861.65 335.765 860.966C336.071 860.274 336.224 859.549 336.224 858.793C336.224 857.923 336.015 857.171 335.596 856.535C335.186 855.899 334.622 855.408 333.906 855.062C333.189 854.716 332.384 854.543 331.491 854.543C330.541 854.543 329.712 854.74 329.004 855.134C328.303 855.521 327.76 856.064 327.374 856.764C326.995 857.464 326.806 858.286 326.806 859.227H323.957C323.957 857.778 324.291 856.507 324.959 855.412C325.627 854.317 326.537 853.464 327.688 852.852C328.847 852.241 330.147 851.935 331.588 851.935C333.036 851.935 334.32 852.241 335.439 852.852C336.558 853.464 337.435 854.289 338.071 855.327C338.707 856.366 339.025 857.521 339.025 858.793C339.025 859.702 338.86 860.592 338.53 861.461C338.208 862.322 337.645 863.284 336.84 864.347C336.043 865.401 334.936 866.689 333.519 868.21L327.965 874.151V874.344H339.46V877H323.86ZM352.563 877.338C350.743 877.338 349.194 876.843 347.914 875.853C346.634 874.855 345.656 873.41 344.98 871.518C344.304 869.619 343.966 867.325 343.966 864.636C343.966 861.964 344.304 859.682 344.98 857.79C345.664 855.891 346.646 854.442 347.926 853.444C349.214 852.438 350.759 851.935 352.563 851.935C354.366 851.935 355.907 852.438 357.187 853.444C358.475 854.442 359.457 855.891 360.133 857.79C360.817 859.682 361.159 861.964 361.159 864.636C361.159 867.325 360.821 869.619 360.145 871.518C359.469 873.41 358.491 874.855 357.211 875.853C355.931 876.843 354.382 877.338 352.563 877.338ZM352.563 874.682C354.366 874.682 355.766 873.812 356.764 872.074C357.762 870.335 358.261 867.856 358.261 864.636C358.261 862.495 358.032 860.672 357.573 859.167C357.122 857.662 356.47 856.515 355.617 855.726C354.772 854.937 353.754 854.543 352.563 854.543C350.776 854.543 349.379 855.424 348.373 857.187C347.367 858.942 346.864 861.425 346.864 864.636C346.864 866.777 347.089 868.597 347.54 870.094C347.991 871.591 348.639 872.73 349.484 873.511C350.337 874.291 351.363 874.682 352.563 874.682Z" fill="white"/>
</svg>
