<svg width="593" height="647" viewBox="0 0 593 647" fill="none" xmlns="http://www.w3.org/2000/svg">
<path fill-rule="evenodd" clip-rule="evenodd" d="M465.43 227.979C465.735 227.067 466.378 227.629 467.068 227.669C468.043 227.727 468.676 227.012 468.786 225.958C468.847 225.363 469.058 224.65 468.256 224.487C466.831 224.198 467.544 225.58 467.126 226.11C466.522 226.873 465.716 226.676 464.977 226.864C464.545 226.974 464.448 227.436 464.595 227.844C464.717 228.178 464.999 228.23 465.43 227.979ZM425.121 565.999C430.401 561.695 435.841 557.53 438.934 551.212C434.624 556.421 430.157 561.48 425.121 565.999ZM440.853 326.503C439.348 327.955 438.718 327.345 438.81 325.555C438.943 323.002 439.364 320.469 439.605 317.923C440.223 311.423 442.022 305.113 443.667 298.805C443.957 297.692 444.103 294.928 446.772 296.741C447.314 295.781 448.861 296.719 449.277 295.301C449.831 293.41 447.882 294.531 447.787 294.016C447.447 292.162 445.664 290.52 446.242 288.709C447.127 285.944 447.804 283.135 448.592 280.352C449.518 277.08 450.688 273.877 451.65 270.615C453.446 264.507 455.255 258.399 456.887 252.246C457.718 249.117 458.638 246.015 459.492 242.899C460.386 239.637 460.461 236.162 461.128 232.827C462.851 224.205 462.809 215.467 461.511 206.919C460.133 197.844 456.275 189.462 451.301 181.669C438.323 161.339 419.835 148.558 396.633 142.552C381.974 138.757 367.092 139.37 352.253 141.709C349.72 142.108 347.227 142.833 347.35 138.456C346.583 141.301 345.208 142.09 342.625 141.458C341.019 141.066 339.507 142.948 337.66 142.414C338.012 145.746 335.256 143.503 334.196 144.318C333.972 144.491 333.567 144.432 333.348 144.606C331.643 145.965 331.096 144.959 330.761 143.052C330.738 146.32 329.3 147.738 326.318 147.566C324.918 147.484 323.321 148.694 323.188 149.3C322.758 151.282 321.164 151.608 319.904 151.998C317.434 152.762 315.405 153.873 313.201 155.34C310.135 157.382 306.56 158.861 303.632 161.276C302.013 162.611 299.569 162.697 298.338 163.849C296.608 165.471 293.938 165.844 292.824 168.147C292.761 168.281 292.239 168.345 292.041 168.238C290.959 167.649 290.778 167.597 290.575 168.845C290.409 169.867 289.796 170.406 289.088 170.513C287.143 170.805 286.036 172.88 283.827 172.704C282.98 172.637 281.898 173.273 281.45 174.323C280.011 177.706 276.802 179.276 274.003 181.073C268.849 184.377 263.797 187.849 258.628 191.13C254.301 193.876 250.005 196.821 245.491 199.123C239.131 202.369 232.376 204.797 225.233 206.318C209.082 209.755 193.237 209.376 177.73 203.69C167.969 200.11 158.482 195.773 148.271 193.503C143.535 192.451 138.676 191.301 133.89 192.106C124.428 193.698 115.97 197.846 108.151 203.375C107.087 204.127 106.057 206.192 104.04 204.526C103.432 204.025 103.419 205.043 103.248 205.412C100.977 210.323 96.4874 213.451 92.9492 217.206C90.1414 220.186 88.0306 223.589 85.671 226.747C82.3258 231.222 80.1458 236.561 77.4529 241.524C77.4004 241.621 77.1529 241.614 77.1942 241.603C76.0891 241.096 77.9513 240.367 76.4894 239.655C76.8407 241.716 73.5846 242.978 75.8304 245.388C76.0289 245.601 75.749 247.321 74.2436 247.547C73.5657 247.648 72.2643 248.354 73.0371 249.593C73.7563 250.747 73.714 253.396 72.7717 254.103C71.4827 255.07 71.505 255.065 71.7882 256.429C71.8886 256.912 71.9945 257.467 71.8562 257.912C70.207 263.202 69.4242 268.675 68.6046 274.114C67.9991 278.138 66.6265 282.261 68.1028 286.34C69.4699 290.121 68.8522 293.982 69.0663 297.816C69.3595 303.02 68.0705 308.096 68.0805 313.295C68.0917 319.533 69.2826 325.657 69.4041 331.851C69.6495 344.326 75.0454 355.223 80.9788 365.495C85.3388 373.043 92.4909 378.888 99.5818 384.329C111.926 393.798 124.811 402.572 136.58 412.78C147.573 422.313 158.444 431.979 168.511 442.5C178.992 453.454 189.817 464.139 198.778 476.405C211.852 494.304 225.754 511.549 240.71 527.872C255.701 544.232 273.388 557.336 292.889 568.095C319.867 582.978 348.482 587.315 378.667 582.18C389.753 580.292 400.684 577.924 410.67 572.192C436.23 557.52 449.183 534.251 455.546 506.721C459.896 487.901 458.724 468.799 456.229 449.813C455.241 442.301 455.128 434.666 453.127 427.288C451.827 422.493 451.623 417.466 449.852 412.74C449.218 411.05 450.181 408.654 449.35 407.173C447.842 404.484 447.476 401.497 446.27 398.775C445.316 396.622 446.201 394.08 445.234 392.111C443.313 388.193 443.053 383.914 441.919 379.839C439.488 371.103 439.164 362.021 437.785 353.11C437.239 349.59 437.649 346.062 437.552 342.541C437.371 336.011 438.36 332.217 440.704 327.9C440.92 327.503 440.792 326.923 440.84 326.456C441.644 327.192 442.009 328.712 443.623 327.994C445.617 327.106 443.628 326.042 443.759 325.075C443.85 324.417 444.307 323.624 443.028 323.666C442.11 323.696 441.497 323.904 441.624 325.046C441.687 325.611 441.518 326.232 440.853 326.503ZM454.601 400.394C454.913 400.637 455.502 400.886 455.498 401.125C455.411 406.16 458.392 410.361 459.281 415.114C460.289 420.5 461.47 425.844 462.665 431.192C464.436 439.12 465.789 447.099 466.558 455.241C467.326 463.357 468.357 471.468 468.488 479.609C468.748 495.541 466.865 511.189 461.866 526.461C460.256 531.381 458.212 536.124 455.977 540.658C453.61 545.463 450.466 550.048 447.752 554.698C445.35 558.814 442.152 562.111 439.314 565.688C436.332 569.449 432.24 572.402 428.395 575.404C420.336 581.696 411.441 586.451 401.43 588.91C392.478 591.111 383.498 593.192 374.255 593.755C356.386 594.841 338.698 593.635 321.492 588.511C297.202 581.277 275.541 569.067 255.579 553.557C230.995 534.456 211.993 510.297 193.407 485.82C178.367 466.011 161.583 447.938 143.459 430.933C126.285 414.819 107.045 401.406 88.4419 387.131C78.812 379.741 69.8322 371.482 63.8409 360.651C59.3783 352.586 56.8303 343.856 56.333 334.678C55.6617 322.265 55.897 309.854 58.0469 297.552C58.2108 296.61 58.0402 295.481 59.3315 295.077C59.9581 294.882 60.0429 294.198 59.7686 293.834C57.0589 290.254 58.5476 286.215 58.7416 282.461C59.2612 272.377 60.5781 262.375 63.8598 252.738C64.1464 251.896 64.1698 250.899 65.857 250.598C64.9259 257.658 62.088 264.25 62.1448 271.299C65.7198 251.685 72.2877 233.332 84.6339 216.876C82.7149 218.021 79.6261 221.963 78.0995 224.779C75.5616 229.46 72.8106 234.036 70.4612 238.808C69.0528 241.67 68.2912 244.841 67.1137 247.826C66.8349 248.534 66.8226 250.028 65.5849 249.62C64.4163 249.235 65.0173 248.005 65.3541 247.244C68.1975 240.804 70.5035 234.129 73.9447 227.951C79.9673 217.143 87.6513 207.781 97.6972 200.417C105.38 194.785 113.53 190.497 122.962 188.083C135.404 184.9 146.956 187.618 158.724 190.852C168.494 193.537 177.429 198.54 187.354 200.75C196.176 202.715 204.961 202.319 213.888 201.232C226.093 199.746 236.686 194.66 246.754 188.111C251.162 185.244 255.422 182.151 259.786 179.215C261.021 178.385 262.256 176.842 263.912 178.707C264.155 178.981 264.802 178.886 264.961 178.457C265.509 176.975 264.346 178.324 264.042 177.952C263.045 176.734 264.175 176.336 264.799 175.885C268.717 173.052 272.676 170.275 276.621 167.48C286.922 160.183 297.454 153.245 308.682 147.431C312.744 145.328 316.749 142.89 321.281 142.094C322.491 141.881 324.901 140.059 325.912 142.952C326.737 142.401 327.007 141.619 327.176 140.673C327.375 139.551 328.196 138.76 329.304 139.469C330.199 140.042 330.533 139.709 331.015 139.121C332.093 137.803 333.189 136.402 333.992 139.317C335.278 138.859 337.21 138.77 337.723 137.875C339.057 135.539 341.33 136.003 342.906 136.172C345.13 136.411 347.991 134.391 349.751 138.496C349.274 133.74 349.262 133.625 353.744 133.138C374.288 130.912 394.141 133.129 413.089 141.949C432.318 150.901 448.106 163.784 459.102 181.952C463.331 188.94 467.549 196.129 468.558 204.607C468.777 206.464 470.606 208.16 468.734 210.076C472.401 213.666 470.839 218.388 470.484 222.314C470.2 225.459 471.535 229.043 469.273 232C468.776 232.652 469.471 233.121 469.805 233.562C470.712 234.762 470.077 236.608 469.62 236.875C467.111 238.341 468.336 240.177 468.541 242.095C468.902 245.478 467.709 248.729 466.478 251.744C465.141 255.02 463.966 258.272 463.491 261.761C463.339 262.882 463.87 264.331 461.864 264.19C461.742 264.181 461.602 264.438 461.469 264.573C464.262 265.912 460.479 267.95 461.979 269.457C462.137 269.615 462.154 270.228 462.035 270.298C458.685 272.308 460.431 276.351 458.515 279.01C457.455 280.482 458.554 282.715 457.561 284.441C457.446 284.641 457.665 285.213 457.598 285.237C454.669 286.246 455.924 289.88 453.703 291.355C452.653 292.053 453.135 293.127 453.377 294.09C453.513 294.631 454.819 293.24 454.263 294.535C453.368 296.626 453.344 298.85 452.841 300.965C452.091 304.121 450.341 302.02 448.837 301.061C450.03 302.577 449.34 305.003 451.584 305.856C452.197 306.09 451.804 306.48 451.695 306.8C450.47 310.384 450.068 314.153 449.177 317.808C448.761 319.518 448.126 321.27 447.162 322.721C446.425 323.833 446.351 325.02 446.751 325.831C447.303 326.954 448.207 327.207 446.094 327.481C444.786 327.651 446.278 328.911 446.581 329.569C447.052 330.588 447.722 331.426 447.06 332.641C446.344 333.955 445.206 333.002 444.207 333.03C444.619 334.269 445.723 333.908 446.291 334.47C446.72 334.892 447.456 335.346 446.814 335.917C444.109 338.331 446.241 340.608 446.655 343.099C447.279 346.876 447.42 350.795 447.234 354.627C446.984 359.787 448.321 364.69 449.001 369.699C449.82 375.74 451.761 381.567 452.384 387.652C452.604 389.799 454.22 391.893 453.699 393.965C453.079 396.426 455.688 398.14 454.651 400.463C453.419 399.942 452.426 398.811 450.702 398.87C450.889 399.448 450.957 399.83 451.131 400.156C451.609 401.051 451.523 402.155 450.725 402.421C449.679 402.772 449.594 401.708 449.549 400.857C449.483 399.624 448.399 400.17 447.797 399.871C447.549 400.318 447.936 400.417 448.099 400.635C450.592 403.948 450.581 403.939 453.342 401.125C453.67 400.792 454.176 400.633 454.601 400.394Z" fill="url(#paint0_linear_10_66)"/>
<g filter="url(#filter0_d_10_66)">
<rect x="131.368" y="50" width="196.119" height="196.119" fill="#FBFBFB"/>
<rect x="130.868" y="49.5" width="197.119" height="197.119" stroke="#FE9C6F"/>
</g>
<g filter="url(#filter1_d_10_66)">
<path d="M593 363.696L410.277 497.103V230.289L593 363.696Z" fill="#FBFBFB"/>
<path d="M410.777 231.273L592.152 363.696L410.777 496.118V231.273Z" stroke="#E7C037"/>
</g>
<g filter="url(#filter2_d_10_66)">
<ellipse cx="167.431" cy="485.088" rx="111.431" ry="108.493" fill="#FBFBFB"/>
<path d="M278.363 485.088C278.363 544.718 228.71 593.081 167.431 593.081C106.153 593.081 56.5 544.718 56.5 485.088C56.5 425.458 106.153 377.096 167.431 377.096C228.71 377.096 278.363 425.458 278.363 485.088Z" stroke="#64778D"/>
</g>
<path d="M94.0018 496.741L87.4633 473.165H91.2045L95.7976 491.422H96.0163L100.794 473.165H104.5L109.278 491.434H109.496L114.078 473.165H117.831L111.281 496.741H107.701L102.739 479.082H102.555L97.5934 496.741H94.0018ZM121.446 496.741V479.059H124.888V496.741H121.446ZM123.184 476.331C122.586 476.331 122.072 476.131 121.642 475.732C121.22 475.325 121.009 474.842 121.009 474.282C121.009 473.714 121.22 473.23 121.642 472.831C122.072 472.425 122.586 472.221 123.184 472.221C123.783 472.221 124.293 472.425 124.715 472.831C125.145 473.23 125.36 473.714 125.36 474.282C125.36 474.842 125.145 475.325 124.715 475.732C124.293 476.131 123.783 476.331 123.184 476.331ZM130.167 496.741V479.059H133.494V481.868H133.678C134 480.916 134.568 480.168 135.382 479.623C136.203 479.071 137.131 478.794 138.167 478.794C138.382 478.794 138.636 478.802 138.927 478.817C139.226 478.833 139.46 478.852 139.629 478.875V482.167C139.491 482.129 139.246 482.087 138.893 482.041C138.54 481.987 138.187 481.96 137.834 481.96C137.02 481.96 136.295 482.133 135.658 482.478C135.029 482.816 134.53 483.288 134.161 483.894C133.793 484.492 133.609 485.175 133.609 485.943V496.741H130.167ZM150.244 497.098C148.502 497.098 147.001 496.725 145.743 495.981C144.492 495.229 143.525 494.174 142.842 492.815C142.167 491.449 141.829 489.849 141.829 488.015C141.829 486.204 142.167 484.608 142.842 483.226C143.525 481.845 144.476 480.767 145.697 479.991C146.925 479.216 148.36 478.829 150.002 478.829C151 478.829 151.967 478.994 152.903 479.324C153.839 479.654 154.68 480.172 155.424 480.878C156.168 481.584 156.755 482.501 157.185 483.629C157.615 484.75 157.83 486.112 157.83 487.716V488.936H143.774V486.357H154.457C154.457 485.452 154.273 484.65 153.904 483.951C153.536 483.245 153.018 482.689 152.35 482.282C151.69 481.876 150.915 481.672 150.025 481.672C149.058 481.672 148.214 481.91 147.493 482.386C146.779 482.854 146.226 483.468 145.835 484.228C145.451 484.98 145.259 485.797 145.259 486.68V488.694C145.259 489.876 145.466 490.881 145.881 491.71C146.303 492.539 146.89 493.172 147.642 493.61C148.394 494.039 149.273 494.254 150.278 494.254C150.931 494.254 151.525 494.162 152.063 493.978C152.6 493.786 153.064 493.502 153.455 493.126C153.847 492.75 154.146 492.286 154.353 491.733L157.611 492.32C157.35 493.28 156.882 494.12 156.207 494.841C155.539 495.555 154.699 496.111 153.686 496.51C152.68 496.902 151.533 497.098 150.244 497.098ZM170.712 479.059V481.822H160.72V479.059H170.712ZM163.46 496.741V477.01C163.46 475.905 163.702 474.988 164.185 474.259C164.668 473.522 165.309 472.973 166.107 472.613C166.906 472.244 167.773 472.06 168.709 472.06C169.4 472.06 169.991 472.118 170.482 472.233C170.973 472.34 171.338 472.44 171.575 472.532L170.77 475.318C170.608 475.272 170.401 475.218 170.148 475.157C169.895 475.088 169.588 475.053 169.227 475.053C168.391 475.053 167.792 475.26 167.431 475.675C167.078 476.089 166.902 476.688 166.902 477.47V496.741H163.46ZM174.912 496.741V479.059H178.239V481.868H178.423C178.745 480.916 179.313 480.168 180.126 479.623C180.948 479.071 181.876 478.794 182.912 478.794C183.127 478.794 183.38 478.802 183.672 478.817C183.971 478.833 184.205 478.852 184.374 478.875V482.167C184.236 482.129 183.99 482.087 183.637 482.041C183.284 481.987 182.931 481.96 182.578 481.96C181.765 481.96 181.04 482.133 180.403 482.478C179.773 482.816 179.275 483.288 178.906 483.894C178.538 484.492 178.354 485.175 178.354 485.943V496.741H174.912ZM192.988 497.132C191.868 497.132 190.855 496.925 189.949 496.51C189.044 496.088 188.326 495.478 187.797 494.68C187.275 493.882 187.014 492.904 187.014 491.745C187.014 490.747 187.206 489.926 187.59 489.281C187.973 488.637 188.491 488.126 189.144 487.75C189.796 487.374 190.525 487.09 191.331 486.898C192.137 486.707 192.958 486.561 193.794 486.461C194.853 486.338 195.713 486.238 196.373 486.162C197.033 486.077 197.512 485.943 197.812 485.759C198.111 485.575 198.261 485.275 198.261 484.861V484.78C198.261 483.775 197.977 482.996 197.409 482.443C196.849 481.891 196.012 481.615 194.899 481.615C193.741 481.615 192.827 481.872 192.16 482.386C191.5 482.892 191.043 483.456 190.79 484.078L187.555 483.341C187.939 482.267 188.499 481.4 189.236 480.74C189.98 480.072 190.836 479.589 191.803 479.289C192.77 478.982 193.787 478.829 194.853 478.829C195.559 478.829 196.308 478.913 197.098 479.082C197.896 479.243 198.641 479.543 199.331 479.98C200.03 480.417 200.601 481.043 201.047 481.856C201.492 482.662 201.714 483.71 201.714 484.999V496.741H198.353V494.323H198.215C197.992 494.768 197.658 495.206 197.213 495.636C196.768 496.065 196.196 496.422 195.498 496.706C194.8 496.99 193.963 497.132 192.988 497.132ZM193.737 494.369C194.688 494.369 195.502 494.181 196.177 493.805C196.86 493.429 197.378 492.938 197.731 492.332C198.092 491.718 198.272 491.062 198.272 490.363V488.084C198.149 488.207 197.912 488.322 197.559 488.429C197.213 488.529 196.818 488.617 196.373 488.694C195.928 488.763 195.494 488.828 195.072 488.89C194.65 488.944 194.297 488.99 194.013 489.028C193.345 489.112 192.735 489.254 192.183 489.454C191.638 489.653 191.2 489.941 190.87 490.317C190.548 490.686 190.387 491.177 190.387 491.791C190.387 492.643 190.701 493.287 191.331 493.725C191.96 494.154 192.762 494.369 193.737 494.369ZM206.947 496.741V479.059H210.251V481.937H210.469C210.838 480.962 211.44 480.203 212.277 479.658C213.113 479.105 214.115 478.829 215.281 478.829C216.463 478.829 217.453 479.105 218.251 479.658C219.057 480.21 219.652 480.97 220.036 481.937H220.22C220.642 480.993 221.313 480.241 222.234 479.681C223.155 479.113 224.253 478.829 225.527 478.829C227.13 478.829 228.439 479.331 229.452 480.337C230.473 481.342 230.983 482.858 230.983 484.884V496.741H227.541V485.206C227.541 484.009 227.215 483.142 226.563 482.605C225.91 482.067 225.131 481.799 224.226 481.799C223.105 481.799 222.234 482.144 221.613 482.835C220.991 483.518 220.68 484.397 220.68 485.471V496.741H217.25V484.987C217.25 484.028 216.95 483.257 216.352 482.674C215.753 482.09 214.974 481.799 214.015 481.799C213.363 481.799 212.76 481.971 212.208 482.317C211.663 482.654 211.222 483.126 210.884 483.733C210.554 484.339 210.389 485.041 210.389 485.839V496.741H206.947ZM243.865 497.098C242.123 497.098 240.623 496.725 239.364 495.981C238.113 495.229 237.146 494.174 236.463 492.815C235.788 491.449 235.45 489.849 235.45 488.015C235.45 486.204 235.788 484.608 236.463 483.226C237.146 481.845 238.098 480.767 239.318 479.991C240.546 479.216 241.981 478.829 243.623 478.829C244.621 478.829 245.588 478.994 246.524 479.324C247.461 479.654 248.301 480.172 249.045 480.878C249.79 481.584 250.377 482.501 250.807 483.629C251.236 484.75 251.451 486.112 251.451 487.716V488.936H237.396V486.357H248.078C248.078 485.452 247.894 484.65 247.526 483.951C247.158 483.245 246.639 482.689 245.972 482.282C245.312 481.876 244.537 481.672 243.646 481.672C242.68 481.672 241.835 481.91 241.114 482.386C240.4 482.854 239.848 483.468 239.456 484.228C239.073 484.98 238.881 485.797 238.881 486.68V488.694C238.881 489.876 239.088 490.881 239.502 491.71C239.924 492.539 240.512 493.172 241.264 493.61C242.016 494.039 242.894 494.254 243.9 494.254C244.552 494.254 245.147 494.162 245.684 493.978C246.221 493.786 246.686 493.502 247.077 493.126C247.468 492.75 247.768 492.286 247.975 491.733L251.233 492.32C250.972 493.28 250.504 494.12 249.828 494.841C249.161 495.555 248.32 496.111 247.307 496.51C246.302 496.902 245.155 497.098 243.865 497.098Z" fill="#42405B"/>
<path d="M200.866 123.878H204.435V139.384C204.435 141.034 204.047 142.496 203.272 143.77C202.497 145.036 201.407 146.034 200.003 146.763C198.598 147.484 196.952 147.845 195.064 147.845C193.184 147.845 191.542 147.484 190.138 146.763C188.733 146.034 187.643 145.036 186.868 143.77C186.093 142.496 185.706 141.034 185.706 139.384V123.878H189.263V139.096C189.263 140.163 189.497 141.111 189.965 141.94C190.441 142.768 191.112 143.421 191.979 143.897C192.847 144.365 193.875 144.599 195.064 144.599C196.262 144.599 197.294 144.365 198.161 143.897C199.036 143.421 199.704 142.768 200.164 141.94C200.632 141.111 200.866 140.163 200.866 139.096V123.878ZM213.812 123.878V147.454H210.255V123.878H213.812ZM228.343 122.773L220.745 150.999H217.672L225.269 122.773H228.343ZM247.352 123.878H250.921V139.384C250.921 141.034 250.533 142.496 249.758 143.77C248.983 145.036 247.893 146.034 246.489 146.763C245.084 147.484 243.438 147.845 241.55 147.845C239.67 147.845 238.028 147.484 236.623 146.763C235.219 146.034 234.129 145.036 233.354 143.77C232.579 142.496 232.192 141.034 232.192 139.384V123.878H235.749V139.096C235.749 140.163 235.983 141.111 236.451 141.94C236.927 142.768 237.598 143.421 238.465 143.897C239.332 144.365 240.361 144.599 241.55 144.599C242.748 144.599 243.78 144.365 244.647 143.897C245.522 143.421 246.19 142.768 246.65 141.94C247.118 141.111 247.352 140.163 247.352 139.096V123.878ZM259.216 123.878L264.856 133.099H265.04L270.681 123.878H274.802L267.458 135.666L274.848 147.454H270.704L265.04 138.36H264.856L259.193 147.454H255.048L262.565 135.666L255.094 123.878H259.216ZM184.403 186.454H176.771V162.878H184.645C186.955 162.878 188.938 163.35 190.596 164.294C192.254 165.23 193.524 166.577 194.406 168.335C195.297 170.084 195.742 172.183 195.742 174.631C195.742 177.087 195.293 179.198 194.395 180.963C193.505 182.728 192.215 184.086 190.527 185.038C188.839 185.982 186.797 186.454 184.403 186.454ZM180.328 183.346H184.207C186.003 183.346 187.496 183.008 188.685 182.333C189.875 181.65 190.765 180.663 191.356 179.374C191.947 178.077 192.242 176.496 192.242 174.631C192.242 172.782 191.947 171.212 191.356 169.923C190.773 168.634 189.902 167.655 188.743 166.988C187.584 166.32 186.145 165.986 184.426 165.986H180.328V183.346ZM208.158 186.811C206.416 186.811 204.915 186.438 203.657 185.694C202.406 184.942 201.439 183.887 200.756 182.528C200.081 181.162 199.743 179.562 199.743 177.728C199.743 175.917 200.081 174.321 200.756 172.939C201.439 171.558 202.39 170.48 203.611 169.704C204.839 168.929 206.274 168.542 207.916 168.542C208.914 168.542 209.881 168.707 210.817 169.037C211.753 169.367 212.594 169.885 213.338 170.591C214.082 171.297 214.669 172.214 215.099 173.342C215.529 174.463 215.744 175.825 215.744 177.429V178.649H201.688V176.07H212.371C212.371 175.165 212.187 174.363 211.818 173.664C211.45 172.958 210.932 172.402 210.264 171.995C209.604 171.588 208.829 171.385 207.939 171.385C206.972 171.385 206.128 171.623 205.407 172.099C204.693 172.567 204.14 173.181 203.749 173.941C203.365 174.693 203.173 175.51 203.173 176.393V178.407C203.173 179.589 203.38 180.594 203.795 181.423C204.217 182.252 204.804 182.885 205.556 183.323C206.308 183.752 207.187 183.967 208.192 183.967C208.845 183.967 209.439 183.875 209.977 183.691C210.514 183.499 210.978 183.215 211.369 182.839C211.761 182.463 212.06 181.999 212.267 181.446L215.525 182.033C215.264 182.993 214.796 183.833 214.121 184.554C213.453 185.268 212.613 185.824 211.6 186.223C210.594 186.615 209.447 186.811 208.158 186.811ZM233.461 173.089L230.341 173.641C230.211 173.242 230.004 172.862 229.72 172.502C229.443 172.141 229.067 171.846 228.592 171.615C228.116 171.385 227.521 171.27 226.807 171.27C225.833 171.27 225.019 171.489 224.367 171.926C223.714 172.356 223.388 172.912 223.388 173.595C223.388 174.186 223.607 174.662 224.044 175.023C224.482 175.383 225.188 175.679 226.163 175.909L228.971 176.554C230.598 176.93 231.811 177.509 232.609 178.292C233.407 179.075 233.806 180.092 233.806 181.343C233.806 182.402 233.499 183.346 232.885 184.174C232.279 184.996 231.431 185.64 230.341 186.108C229.259 186.576 228.004 186.811 226.577 186.811C224.597 186.811 222.982 186.388 221.731 185.544C220.48 184.692 219.712 183.484 219.428 181.918L222.755 181.412C222.962 182.279 223.388 182.935 224.033 183.38C224.678 183.818 225.518 184.036 226.554 184.036C227.682 184.036 228.584 183.802 229.259 183.334C229.935 182.858 230.272 182.279 230.272 181.596C230.272 181.043 230.065 180.579 229.651 180.203C229.244 179.827 228.618 179.543 227.774 179.351L224.781 178.695C223.131 178.319 221.911 177.72 221.121 176.899C220.338 176.078 219.946 175.038 219.946 173.779C219.946 172.736 220.238 171.823 220.821 171.04C221.404 170.257 222.21 169.647 223.239 169.209C224.267 168.764 225.445 168.542 226.773 168.542C228.684 168.542 230.188 168.956 231.285 169.785C232.383 170.606 233.108 171.707 233.461 173.089ZM238.239 186.454V168.772H241.681V186.454H238.239ZM239.977 166.044C239.379 166.044 238.864 165.844 238.435 165.445C238.013 165.038 237.802 164.555 237.802 163.995C237.802 163.427 238.013 162.943 238.435 162.544C238.864 162.138 239.379 161.934 239.977 161.934C240.576 161.934 241.086 162.138 241.508 162.544C241.938 162.943 242.153 163.427 242.153 163.995C242.153 164.555 241.938 165.038 241.508 165.445C241.086 165.844 240.576 166.044 239.977 166.044ZM254.373 193.453C252.969 193.453 251.76 193.268 250.747 192.9C249.742 192.532 248.921 192.044 248.284 191.438C247.647 190.832 247.171 190.168 246.856 189.447L249.815 188.226C250.022 188.564 250.298 188.921 250.643 189.297C250.996 189.681 251.472 190.007 252.071 190.275C252.677 190.544 253.456 190.678 254.408 190.678C255.712 190.678 256.791 190.36 257.642 189.723C258.494 189.094 258.92 188.088 258.92 186.707V183.23H258.702C258.494 183.606 258.195 184.025 257.804 184.485C257.42 184.946 256.89 185.345 256.215 185.682C255.54 186.02 254.661 186.189 253.579 186.189C252.182 186.189 250.924 185.863 249.803 185.21C248.69 184.55 247.808 183.58 247.155 182.298C246.511 181.009 246.188 179.424 246.188 177.544C246.188 175.664 246.507 174.052 247.144 172.709C247.789 171.366 248.671 170.338 249.792 169.624C250.912 168.902 252.182 168.542 253.602 168.542C254.699 168.542 255.586 168.726 256.261 169.094C256.936 169.455 257.462 169.877 257.838 170.361C258.222 170.844 258.517 171.27 258.725 171.638H258.978V168.772H262.351V186.845C262.351 188.365 261.998 189.612 261.292 190.586C260.586 191.561 259.63 192.282 258.425 192.75C257.228 193.219 255.877 193.453 254.373 193.453ZM254.339 183.334C255.329 183.334 256.165 183.104 256.848 182.643C257.539 182.175 258.061 181.508 258.414 180.64C258.774 179.765 258.955 178.718 258.955 177.498C258.955 176.308 258.778 175.261 258.425 174.355C258.072 173.449 257.554 172.743 256.871 172.237C256.188 171.723 255.344 171.466 254.339 171.466C253.303 171.466 252.439 171.734 251.749 172.271C251.058 172.801 250.536 173.522 250.183 174.436C249.838 175.349 249.665 176.37 249.665 177.498C249.665 178.657 249.841 179.673 250.194 180.548C250.548 181.423 251.069 182.106 251.76 182.597C252.458 183.088 253.318 183.334 254.339 183.334ZM271.057 175.955V186.454H267.615V168.772H270.919V171.65H271.138C271.544 170.714 272.181 169.962 273.049 169.394C273.923 168.826 275.025 168.542 276.352 168.542C277.557 168.542 278.612 168.795 279.518 169.302C280.424 169.8 281.126 170.545 281.625 171.535C282.123 172.525 282.373 173.749 282.373 175.207V186.454H278.931V175.621C278.931 174.34 278.597 173.338 277.929 172.617C277.262 171.888 276.345 171.523 275.178 171.523C274.38 171.523 273.67 171.696 273.049 172.041C272.435 172.387 271.947 172.893 271.587 173.561C271.234 174.221 271.057 175.019 271.057 175.955Z" fill="#42405B"/>
<path d="M432.54 355.729V332.154H440.943C442.777 332.154 444.297 332.487 445.502 333.155C446.706 333.823 447.608 334.736 448.207 335.895C448.805 337.046 449.105 338.343 449.105 339.786C449.105 341.236 448.802 342.541 448.195 343.7C447.597 344.851 446.691 345.764 445.479 346.439C444.274 347.107 442.758 347.441 440.932 347.441H435.153V344.425H440.609C441.768 344.425 442.708 344.225 443.43 343.826C444.151 343.42 444.68 342.867 445.018 342.169C445.356 341.47 445.525 340.676 445.525 339.786C445.525 338.896 445.356 338.105 445.018 337.414C444.68 336.724 444.147 336.183 443.418 335.791C442.697 335.4 441.745 335.204 440.563 335.204H436.097V355.729H432.54ZM460.873 356.086C459.216 356.086 457.769 355.706 456.533 354.946C455.298 354.187 454.338 353.124 453.655 351.758C452.972 350.392 452.631 348.795 452.631 346.969C452.631 345.135 452.972 343.531 453.655 342.157C454.338 340.783 455.298 339.717 456.533 338.957C457.769 338.197 459.216 337.817 460.873 337.817C462.531 337.817 463.977 338.197 465.213 338.957C466.449 339.717 467.408 340.783 468.091 342.157C468.774 343.531 469.115 345.135 469.115 346.969C469.115 348.795 468.774 350.392 468.091 351.758C467.408 353.124 466.449 354.187 465.213 354.946C463.977 355.706 462.531 356.086 460.873 356.086ZM460.885 353.197C461.959 353.197 462.849 352.913 463.555 352.345C464.261 351.777 464.783 351.021 465.121 350.077C465.466 349.133 465.639 348.093 465.639 346.957C465.639 345.829 465.466 344.793 465.121 343.849C464.783 342.898 464.261 342.134 463.555 341.559C462.849 340.983 461.959 340.695 460.885 340.695C459.803 340.695 458.905 340.983 458.191 341.559C457.485 342.134 456.959 342.898 456.614 343.849C456.276 344.793 456.107 345.829 456.107 346.957C456.107 348.093 456.276 349.133 456.614 350.077C456.959 351.021 457.485 351.777 458.191 352.345C458.905 352.913 459.803 353.197 460.885 353.197ZM486.855 342.364L483.736 342.917C483.605 342.518 483.398 342.138 483.114 341.777C482.838 341.417 482.462 341.121 481.986 340.891C481.51 340.661 480.916 340.546 480.202 340.546C479.227 340.546 478.414 340.764 477.761 341.202C477.109 341.631 476.783 342.188 476.783 342.871C476.783 343.462 477.002 343.938 477.439 344.298C477.876 344.659 478.583 344.954 479.557 345.185L482.366 345.829C483.993 346.205 485.205 346.785 486.004 347.568C486.802 348.35 487.201 349.367 487.201 350.618C487.201 351.677 486.894 352.621 486.28 353.45C485.674 354.271 484.826 354.916 483.736 355.384C482.654 355.852 481.399 356.086 479.972 356.086C477.992 356.086 476.376 355.664 475.125 354.82C473.874 353.968 473.107 352.759 472.823 351.194L476.15 350.687C476.357 351.554 476.783 352.211 477.428 352.656C478.072 353.093 478.913 353.312 479.949 353.312C481.077 353.312 481.978 353.078 482.654 352.61C483.329 352.134 483.667 351.554 483.667 350.871C483.667 350.319 483.46 349.855 483.045 349.478C482.638 349.102 482.013 348.818 481.169 348.627L478.176 347.97C476.526 347.594 475.306 346.996 474.515 346.175C473.732 345.354 473.341 344.314 473.341 343.055C473.341 342.011 473.633 341.098 474.216 340.315C474.799 339.533 475.605 338.922 476.633 338.485C477.662 338.04 478.84 337.817 480.167 337.817C482.078 337.817 483.582 338.232 484.68 339.061C485.777 339.882 486.502 340.983 486.855 342.364ZM499.887 338.048V340.81H490.229V338.048H499.887ZM492.819 333.811H496.261V350.538C496.261 351.205 496.361 351.708 496.56 352.046C496.76 352.376 497.017 352.602 497.332 352.725C497.654 352.84 498.003 352.897 498.379 352.897C498.656 352.897 498.897 352.878 499.105 352.84C499.312 352.801 499.473 352.771 499.588 352.748L500.21 355.591C500.01 355.668 499.726 355.745 499.358 355.821C498.989 355.906 498.529 355.952 497.976 355.959C497.071 355.975 496.227 355.814 495.444 355.476C494.661 355.138 494.028 354.616 493.544 353.91C493.061 353.204 492.819 352.318 492.819 351.251V333.811ZM511.774 356.086C510.032 356.086 508.531 355.714 507.273 354.969C506.022 354.217 505.055 353.162 504.372 351.804C503.697 350.438 503.359 348.838 503.359 347.004C503.359 345.192 503.697 343.596 504.372 342.215C505.055 340.833 506.006 339.755 507.227 338.98C508.455 338.205 509.89 337.817 511.532 337.817C512.53 337.817 513.497 337.982 514.433 338.312C515.369 338.642 516.21 339.16 516.954 339.866C517.698 340.572 518.285 341.489 518.715 342.618C519.145 343.738 519.36 345.1 519.36 346.704V347.924H505.304V345.346H515.987C515.987 344.44 515.803 343.638 515.434 342.94C515.066 342.234 514.548 341.678 513.88 341.271C513.22 340.864 512.445 340.661 511.555 340.661C510.588 340.661 509.744 340.899 509.023 341.374C508.309 341.843 507.756 342.456 507.365 343.216C506.981 343.968 506.789 344.786 506.789 345.668V347.683C506.789 348.865 506.996 349.87 507.411 350.699C507.833 351.528 508.42 352.161 509.172 352.598C509.924 353.028 510.803 353.243 511.808 353.243C512.461 353.243 513.055 353.151 513.593 352.966C514.13 352.775 514.594 352.491 514.985 352.115C515.377 351.739 515.676 351.274 515.883 350.722L519.141 351.309C518.88 352.268 518.412 353.108 517.737 353.83C517.069 354.544 516.229 355.1 515.216 355.499C514.21 355.89 513.063 356.086 511.774 356.086ZM523.827 355.729V338.048H527.154V340.856H527.338C527.66 339.905 528.228 339.156 529.042 338.612C529.863 338.059 530.792 337.783 531.828 337.783C532.043 337.783 532.296 337.79 532.587 337.806C532.887 337.821 533.121 337.84 533.29 337.863V341.156C533.151 341.117 532.906 341.075 532.553 341.029C532.2 340.975 531.847 340.948 531.494 340.948C530.68 340.948 529.955 341.121 529.318 341.466C528.689 341.804 528.19 342.276 527.822 342.882C527.453 343.481 527.269 344.164 527.269 344.931V355.729H523.827ZM437.251 394.729H429.619V371.154H437.493C439.803 371.154 441.787 371.626 443.444 372.57C445.102 373.506 446.372 374.853 447.255 376.61C448.145 378.36 448.59 380.459 448.59 382.907C448.59 385.363 448.141 387.473 447.243 389.238C446.353 391.003 445.064 392.362 443.375 393.313C441.687 394.257 439.646 394.729 437.251 394.729ZM433.176 391.621H437.055C438.851 391.621 440.344 391.283 441.533 390.608C442.723 389.925 443.613 388.939 444.204 387.65C444.795 386.353 445.09 384.772 445.09 382.907C445.09 381.057 444.795 379.488 444.204 378.199C443.621 376.909 442.75 375.931 441.591 375.263C440.432 374.596 438.993 374.262 437.274 374.262H433.176V391.621ZM461.006 395.086C459.264 395.086 457.764 394.714 456.505 393.969C455.254 393.217 454.287 392.162 453.604 390.804C452.929 389.438 452.591 387.838 452.591 386.004C452.591 384.192 452.929 382.596 453.604 381.215C454.287 379.833 455.239 378.755 456.459 377.98C457.687 377.205 459.122 376.817 460.764 376.817C461.762 376.817 462.729 376.982 463.665 377.312C464.601 377.642 465.442 378.16 466.186 378.866C466.931 379.572 467.518 380.489 467.947 381.618C468.377 382.738 468.592 384.1 468.592 385.704V386.924H454.536V384.346H465.219C465.219 383.44 465.035 382.638 464.667 381.94C464.298 381.234 463.78 380.678 463.113 380.271C462.453 379.864 461.677 379.661 460.787 379.661C459.82 379.661 458.976 379.899 458.255 380.374C457.541 380.843 456.988 381.456 456.597 382.216C456.213 382.968 456.021 383.786 456.021 384.668V386.683C456.021 387.865 456.229 388.87 456.643 389.699C457.065 390.528 457.652 391.161 458.404 391.598C459.156 392.028 460.035 392.243 461.04 392.243C461.693 392.243 462.288 392.151 462.825 391.966C463.362 391.775 463.826 391.491 464.218 391.115C464.609 390.739 464.908 390.274 465.116 389.722L468.373 390.309C468.112 391.268 467.644 392.108 466.969 392.83C466.301 393.544 465.461 394.1 464.448 394.499C463.443 394.89 462.295 395.086 461.006 395.086ZM486.309 381.364L483.189 381.917C483.059 381.518 482.852 381.138 482.568 380.777C482.292 380.417 481.916 380.121 481.44 379.891C480.964 379.661 480.369 379.546 479.655 379.546C478.681 379.546 477.867 379.764 477.215 380.202C476.563 380.631 476.236 381.188 476.236 381.871C476.236 382.462 476.455 382.938 476.893 383.298C477.33 383.659 478.036 383.954 479.011 384.185L481.82 384.829C483.447 385.205 484.659 385.785 485.457 386.568C486.255 387.35 486.654 388.367 486.654 389.618C486.654 390.677 486.347 391.621 485.733 392.45C485.127 393.271 484.279 393.916 483.189 394.384C482.107 394.852 480.853 395.086 479.425 395.086C477.445 395.086 475.83 394.664 474.579 393.82C473.328 392.968 472.56 391.759 472.277 390.194L475.603 389.687C475.811 390.554 476.236 391.211 476.881 391.656C477.526 392.093 478.366 392.312 479.402 392.312C480.53 392.312 481.432 392.078 482.107 391.61C482.783 391.134 483.12 390.554 483.12 389.871C483.12 389.319 482.913 388.855 482.499 388.478C482.092 388.102 481.467 387.818 480.622 387.627L477.629 386.97C475.979 386.594 474.759 385.996 473.969 385.175C473.186 384.354 472.795 383.314 472.795 382.055C472.795 381.011 473.086 380.098 473.669 379.315C474.253 378.533 475.058 377.922 476.087 377.485C477.115 377.04 478.293 376.817 479.621 376.817C481.532 376.817 483.036 377.232 484.133 378.061C485.231 378.882 485.956 379.983 486.309 381.364ZM491.087 394.729V377.048H494.529V394.729H491.087ZM492.825 374.319C492.227 374.319 491.713 374.12 491.283 373.721C490.861 373.314 490.65 372.831 490.65 372.27C490.65 371.702 490.861 371.219 491.283 370.82C491.713 370.413 492.227 370.21 492.825 370.21C493.424 370.21 493.934 370.413 494.356 370.82C494.786 371.219 495.001 371.702 495.001 372.27C495.001 372.831 494.786 373.314 494.356 373.721C493.934 374.12 493.424 374.319 492.825 374.319ZM507.221 401.728C505.817 401.728 504.608 401.544 503.595 401.176C502.59 400.807 501.769 400.32 501.132 399.714C500.495 399.107 500.019 398.444 499.704 397.722L502.663 396.502C502.87 396.84 503.146 397.197 503.492 397.573C503.845 397.956 504.32 398.282 504.919 398.551C505.525 398.82 506.304 398.954 507.256 398.954C508.561 398.954 509.639 398.635 510.491 397.999C511.342 397.369 511.768 396.364 511.768 394.983V391.506H511.55C511.342 391.882 511.043 392.3 510.652 392.761C510.268 393.221 509.739 393.62 509.063 393.958C508.388 394.296 507.509 394.464 506.427 394.464C505.03 394.464 503.772 394.138 502.651 393.486C501.539 392.826 500.656 391.855 500.004 390.574C499.359 389.284 499.037 387.7 499.037 385.819C499.037 383.939 499.355 382.328 499.992 380.984C500.637 379.641 501.519 378.613 502.64 377.899C503.76 377.178 505.03 376.817 506.45 376.817C507.548 376.817 508.434 377.002 509.109 377.37C509.785 377.731 510.31 378.153 510.686 378.636C511.07 379.12 511.366 379.546 511.573 379.914H511.826V377.048H515.199V395.121C515.199 396.64 514.846 397.887 514.14 398.862C513.434 399.837 512.478 400.558 511.273 401.026C510.076 401.494 508.726 401.728 507.221 401.728ZM507.187 391.61C508.177 391.61 509.013 391.379 509.696 390.919C510.387 390.451 510.909 389.783 511.262 388.916C511.623 388.041 511.803 386.994 511.803 385.773C511.803 384.584 511.626 383.536 511.273 382.631C510.92 381.725 510.402 381.019 509.719 380.513C509.036 379.998 508.192 379.741 507.187 379.741C506.151 379.741 505.287 380.01 504.597 380.547C503.906 381.077 503.384 381.798 503.031 382.711C502.686 383.624 502.513 384.645 502.513 385.773C502.513 386.932 502.69 387.949 503.043 388.824C503.396 389.699 503.918 390.382 504.608 390.873C505.307 391.364 506.166 391.61 507.187 391.61ZM523.905 384.231V394.729H520.463V377.048H523.767V379.925H523.986C524.393 378.989 525.03 378.237 525.897 377.669C526.772 377.101 527.873 376.817 529.201 376.817C530.405 376.817 531.461 377.071 532.366 377.577C533.272 378.076 533.974 378.82 534.473 379.81C534.972 380.8 535.221 382.024 535.221 383.482V394.729H531.779V383.897C531.779 382.615 531.445 381.614 530.778 380.892C530.11 380.163 529.193 379.799 528.026 379.799C527.228 379.799 526.518 379.971 525.897 380.317C525.283 380.662 524.795 381.169 524.435 381.836C524.082 382.496 523.905 383.294 523.905 384.231Z" fill="#42405B"/>
<defs>
<filter id="filter0_d_10_66" x="83.7452" y="0.695903" width="291.366" height="291.366" filterUnits="userSpaceOnUse" color-interpolation-filters="sRGB">
<feFlood flood-opacity="0" result="BackgroundImageFix"/>
<feColorMatrix in="SourceAlpha" type="matrix" values="0 0 0 0 0 0 0 0 0 0 0 0 0 0 0 0 0 0 127 0" result="hardAlpha"/>
<feMorphology radius="5.04307" operator="dilate" in="SourceAlpha" result="effect1_dropShadow_10_66"/>
<feOffset dy="-1.68102"/>
<feGaussianBlur stdDeviation="20.79"/>
<feComposite in2="hardAlpha" operator="out"/>
<feColorMatrix type="matrix" values="0 0 0 0 0.808333 0 0 0 0 0.808333 0 0 0 0 0.808333 0 0 0 0.37 0"/>
<feBlend mode="normal" in2="BackgroundImageFix" result="effect1_dropShadow_10_66"/>
<feBlend mode="normal" in="SourceGraphic" in2="effect1_dropShadow_10_66" result="shape"/>
</filter>
<filter id="filter1_d_10_66" x="351.36" y="169.734" width="300.556" height="384.646" filterUnits="userSpaceOnUse" color-interpolation-filters="sRGB">
<feFlood flood-opacity="0" result="BackgroundImageFix"/>
<feColorMatrix in="SourceAlpha" type="matrix" values="0 0 0 0 0 0 0 0 0 0 0 0 0 0 0 0 0 0 127 0" result="hardAlpha"/>
<feMorphology radius="4.91632" operator="dilate" in="SourceAlpha" result="effect1_dropShadow_10_66"/>
<feOffset dy="-1.63877"/>
<feGaussianBlur stdDeviation="27"/>
<feComposite in2="hardAlpha" operator="out"/>
<feColorMatrix type="matrix" values="0 0 0 0 0.807843 0 0 0 0 0.807843 0 0 0 0 0.807843 0 0 0 0.17 0"/>
<feBlend mode="normal" in2="BackgroundImageFix" result="effect1_dropShadow_10_66"/>
<feBlend mode="normal" in="SourceGraphic" in2="effect1_dropShadow_10_66" result="shape"/>
</filter>
<filter id="filter2_d_10_66" x="0.896267" y="319.791" width="333.07" height="327.193" filterUnits="userSpaceOnUse" color-interpolation-filters="sRGB">
<feFlood flood-opacity="0" result="BackgroundImageFix"/>
<feColorMatrix in="SourceAlpha" type="matrix" values="0 0 0 0 0 0 0 0 0 0 0 0 0 0 0 0 0 0 127 0" result="hardAlpha"/>
<feMorphology radius="5.10373" operator="dilate" in="SourceAlpha" result="effect1_dropShadow_10_66"/>
<feOffset dy="-1.70124"/>
<feGaussianBlur stdDeviation="25"/>
<feComposite in2="hardAlpha" operator="out"/>
<feColorMatrix type="matrix" values="0 0 0 0 0.807843 0 0 0 0 0.807843 0 0 0 0 0.807843 0 0 0 0.32 0"/>
<feBlend mode="normal" in2="BackgroundImageFix" result="effect1_dropShadow_10_66"/>
<feBlend mode="normal" in="SourceGraphic" in2="effect1_dropShadow_10_66" result="shape"/>
</filter>
<linearGradient id="paint0_linear_10_66" x1="263.559" y1="132.333" x2="132.5" y2="482.5" gradientUnits="userSpaceOnUse">
<stop stop-color="#FE9C6F"/>
<stop offset="1" stop-color="#61768D"/>
</linearGradient>
</defs>
</svg>
