<svg width="649" height="600" viewBox="0 0 649 600" fill="none" xmlns="http://www.w3.org/2000/svg">
<g clip-path="url(#clip0_1273_5302)">
<path d="M591.269 480.502L538.586 402.247C538.586 402.247 618.371 430.1 609.316 480.502H591.269Z" fill="#E5E5E5"/>
<path d="M45.1641 481.021L43.1641 480.982C43.9376 458.745 46.3102 436.592 50.2637 414.695C58.9121 367.814 73.293 337.025 93.0068 323.184L94.1553 324.82C48.1035 357.154 45.1875 479.786 45.1641 481.021Z" fill="#E5E5E5"/>
<path d="M70.1641 480.543L68.1641 480.504C68.2071 478.289 69.4571 426.09 90.0068 411.662L91.1553 413.299C71.4346 427.145 70.1738 480.011 70.1641 480.543Z" fill="#E5E5E5"/>
<path d="M105.531 325.002C111.054 325.002 115.531 320.525 115.531 315.002C115.531 309.479 111.054 305.002 105.531 305.002C100.008 305.002 95.5312 309.479 95.5312 315.002C95.5312 320.525 100.008 325.002 105.531 325.002Z" fill="#D4E7CA"/>
<path d="M100.578 411.002C106.101 411.002 110.578 406.525 110.578 401.002C110.578 395.479 106.101 391.002 100.578 391.002C95.0553 391.002 90.5781 395.479 90.5781 401.002C90.5781 406.525 95.0553 411.002 100.578 411.002Z" fill="#D4E7CA"/>
<path d="M65.4995 330.996C67.3789 343 62.4806 353.737 62.4806 353.737C62.4806 353.737 54.5353 345.011 52.656 333.007C50.7766 321.003 55.6749 310.267 55.6749 310.267C55.6749 310.267 63.6201 318.992 65.4995 330.996Z" fill="#E5E5E5"/>
<path d="M98.1883 360.15C86.6953 364.092 75.2695 361.139 75.2695 361.139C75.2695 361.139 82.4774 351.795 93.9704 347.853C105.463 343.911 116.889 346.864 116.889 346.864C116.889 346.864 109.681 356.208 98.1883 360.15Z" fill="#E5E5E5"/>
<path d="M98.5564 436.311C93.3548 437.945 87.8153 438.184 82.4922 437.005C85.8721 432.702 90.4242 429.468 95.6 427.692C100.776 425.917 106.355 425.676 111.664 426.999C108.186 431.197 103.666 434.408 98.5564 436.311Z" fill="#E5E5E5"/>
<path d="M648 482.502H1C0.734784 482.502 0.480444 482.397 0.292908 482.209C0.105371 482.022 0 481.767 0 481.502C0 481.237 0.105371 480.982 0.292908 480.795C0.480444 480.607 0.734784 480.502 1 480.502H648C648.265 480.502 648.52 480.607 648.707 480.795C648.895 480.982 649 481.237 649 481.502C649 481.767 648.895 482.022 648.707 482.209C648.52 482.397 648.265 482.502 648 482.502Z" fill="#CBCBCB"/>
<path d="M409.791 528.602L401.61 549.895L315.586 528.472L327.66 497.045L409.791 528.602Z" fill="#FFB7B7"/>
<path d="M432.519 531.101L406.139 599.759L405.271 599.425C398.184 596.702 392.468 591.275 389.382 584.338C386.296 577.401 386.092 569.522 388.814 562.435L388.815 562.433L404.926 520.499L432.519 531.101Z" fill="#2F2E41"/>
<path d="M279.075 261.992L241.586 265.502L239.727 377.045C240.224 382.511 242.841 387.566 247.019 391.126C251.198 394.685 256.604 396.468 262.08 396.09L285.848 394.453L279.075 261.992Z" fill="#D8F0CC"/>
<path d="M411.237 256.502L385.586 256.172L384.066 388.708C389.735 388.897 395.381 387.916 400.653 385.826C405.926 383.736 410.711 380.583 414.711 376.562C418.71 372.541 421.838 367.739 423.9 362.455C425.962 357.172 426.912 351.521 426.693 345.853L411.237 256.502Z" fill="#D8F0CC"/>
<path d="M262.4 435.792C261.793 439.636 260.911 443.432 259.761 447.15C258.467 450.79 256.469 454.156 255.285 457.833C251.513 469.555 256.743 482.624 265.095 491.671C272.339 499.485 281.688 505.037 292.016 507.657C299.552 509.552 307.386 509.825 315.152 510.088C336.654 510.817 358.71 511.47 379.085 504.559C385.523 502.322 391.74 499.497 397.66 496.121C399.529 495.23 401.176 493.934 402.48 492.326C404.034 490.113 404.233 487.244 404.219 484.541C404.173 475.425 402.325 466.356 402.764 457.251C403.007 452.207 403.951 447.168 403.486 442.14C402.843 436.43 400.451 431.058 396.638 426.76C392.824 422.462 387.775 419.447 382.182 418.128C376.402 416.887 370.407 417.563 364.523 418.129C349.248 419.597 333.908 420.283 318.563 420.184C302.885 420.084 287.303 417.691 271.703 417.441C267.089 417.367 267.182 418.789 265.713 423.254C264.361 427.364 263.254 431.55 262.4 435.792Z" fill="#2F2E41"/>
<path d="M201.093 428.383C196.877 427.323 192.533 426.861 188.188 427.011C183.623 427.263 179.165 428.484 175.108 430.593C171.052 432.702 167.491 435.651 164.663 439.242C161.834 442.834 159.803 446.987 158.703 451.424C157.604 455.862 157.461 460.483 158.286 464.979C159.339 469.85 161.06 474.553 163.4 478.953C166.822 485.898 170.927 492.827 177.262 497.278C180.968 499.882 185.258 501.505 189.496 503.102L222.865 515.672C227.774 517.521 232.684 519.371 237.641 521.086C262.547 529.694 288.514 534.857 314.818 536.429C322.831 536.906 330.965 537.039 338.781 535.214C340.636 534.782 342.615 534.136 343.689 532.563C344.325 531.455 344.7 530.216 344.785 528.941L346.838 514.567C347.128 512.543 347.406 510.412 346.664 508.507C345.723 506.091 343.366 504.572 341.117 503.28C319.18 490.681 293.565 483.729 275.1 466.436C270.753 462.365 267.115 455.912 261.834 453.147C255.845 450.011 248.791 448.221 242.6 445.331C229.067 439.014 215.761 431.754 201.093 428.383Z" fill="#2F2E41"/>
<path opacity="0.1" d="M234.407 447.761C246.201 451.457 295.997 477.061 304.533 486.001C303.389 486.413 264.572 464.66 263.407 464.31C252.819 461.133 242.173 457.934 232.118 453.284C230.096 452.348 218.978 447.951 219.481 445.399C220.05 442.519 232.313 447.105 234.407 447.761Z" fill="black"/>
<path d="M305.586 224.502L273.83 248.614C273.83 248.614 240.322 249.662 241.454 271.082C242.586 292.502 255.997 393.92 255.997 393.92L258.907 428.815L314.1 444.542C343.921 453.039 375.428 453.714 405.586 446.502L399.027 411.494C399.027 411.494 425.586 252.502 409.586 245.502C393.586 238.502 383.586 240.502 383.586 240.502L363.531 223.002L305.586 224.502Z" fill="#D4E7CA"/>
<path d="M378.586 229.502H291.586V334.502H378.586V229.502Z" fill="#BBE4FB"/>
<path d="M296.383 527.602L304.565 548.895L390.589 527.472L378.514 496.045L296.383 527.602Z" fill="#FFB7B7"/>
<path d="M301.249 519.499L317.36 561.433L317.361 561.435C320.083 568.522 319.879 576.401 316.793 583.338C313.707 590.275 307.991 595.702 300.904 598.425L300.036 598.759L273.656 530.101L301.249 519.499Z" fill="#2F2E41"/>
<path d="M468.335 420.232C475.245 418.499 482.409 418.01 489.492 418.787C495.148 419.41 500.975 420.984 505.105 424.899C510.131 429.664 511.746 437.033 511.881 443.957C512.102 457.749 507.527 471.19 498.939 481.984C496.842 484.714 494.348 487.115 491.54 489.107C488.511 491.002 485.282 492.558 481.913 493.746L407.185 523.221C387.526 530.975 367.797 538.752 347.292 543.864C346.177 544.402 344.894 544.475 343.725 544.068C342.556 543.66 341.597 542.804 341.059 541.69C341.042 541.655 341.026 541.621 341.011 541.587C334.463 532.234 328.97 522.187 324.632 511.627C324.427 511.376 324.285 511.079 324.219 510.761C324.152 510.444 324.163 510.115 324.251 509.803C324.338 509.491 324.5 509.204 324.721 508.968C324.943 508.731 325.219 508.551 325.525 508.443L378.38 478.074C382.166 475.899 385.995 473.692 389.138 470.662C391.423 468.448 393.293 465.844 394.661 462.972C395.757 460.684 395.859 455.284 397.259 453.592C398.629 451.936 403.316 451.804 405.481 451.153C408.534 450.217 411.524 449.087 414.432 447.769C426.255 442.48 436.784 434.794 448.118 428.601C454.475 424.966 461.268 422.154 468.335 420.232Z" fill="#2F2E41"/>
<path opacity="0.1" d="M438.37 442.912C429.289 449.732 417.531 456.002 408.531 463.002C405.46 465.391 354.255 494.178 353.531 498.002C361.928 499.416 415.414 461.999 423.067 458.265C430.719 454.531 437.503 449.266 444.225 444.039C445.938 442.707 453.198 438.704 448.281 437.215C445.51 436.377 440.415 441.548 438.37 442.912Z" fill="black"/>
<path d="M601.588 179.716C618.845 179.716 632.836 165.725 632.836 148.468C632.836 131.21 618.845 117.22 601.588 117.22C584.33 117.22 570.34 131.21 570.34 148.468C570.34 165.725 584.33 179.716 601.588 179.716Z" fill="#E4F2FB"/>
<path d="M543.756 185.312C555.862 185.312 565.676 175.498 565.676 163.392C565.676 151.286 555.862 141.472 543.756 141.472C531.65 141.472 521.836 151.286 521.836 163.392C521.836 175.498 531.65 185.312 543.756 185.312Z" fill="#E4F2FB"/>
<path d="M142.213 171.012C151.92 171.012 159.789 163.143 159.789 153.436C159.789 143.729 151.92 135.86 142.213 135.86C132.506 135.86 124.637 143.729 124.637 153.436C124.637 163.143 132.506 171.012 142.213 171.012Z" fill="#F1F1F1"/>
<path d="M171.15 182.832C177.959 182.832 183.479 177.312 183.479 170.502C183.479 163.693 177.959 158.173 171.15 158.173C164.34 158.173 158.82 163.693 158.82 170.502C158.82 177.312 164.34 182.832 171.15 182.832Z" fill="#F1F1F1"/>
<path d="M341.654 26.8705C349.074 26.8705 355.089 20.8554 355.089 13.4353C355.089 6.01517 349.074 0 341.654 0C334.234 0 328.219 6.01517 328.219 13.4353C328.219 20.8554 334.234 26.8705 341.654 26.8705Z" fill="#F1F1F1"/>
<path opacity="0.17" d="M261.586 296.502L262.787 287.231C262.787 287.231 307.586 290.502 300.586 301.502C293.586 312.502 276.586 313.502 276.586 313.502L261.586 296.502Z" fill="#2F2E41"/>
<path fill-rule="evenodd" clip-rule="evenodd" d="M382.148 120.973C388.551 144.567 396.894 197.601 388.38 205.92H334.514C334.508 205.824 334.503 205.729 334.497 205.634C314.532 203.424 299.004 186.497 299.004 165.942V126.936C299.004 104.88 316.884 87 338.939 87H342.654C362.684 87 379.27 101.746 382.148 120.973Z" fill="#191847"/>
<path fill-rule="evenodd" clip-rule="evenodd" d="M319.921 158.494C311.362 148.447 305.569 136.135 306.537 122.339C309.326 82.5883 364.66 91.3329 375.424 111.396C386.188 131.458 384.909 182.349 370.998 185.935C365.45 187.365 353.632 183.862 341.603 176.612L349.153 230.025H304.574L319.921 158.494Z" fill="#FFB7B7"/>
<path fill-rule="evenodd" clip-rule="evenodd" d="M331.974 151.779C334.028 173.842 333.206 199.037 327.084 205.018H273.218C270.217 152.872 299.222 173.065 299.222 123.969C301.031 122.202 302.74 120.453 304.43 118.945L304.371 117.501C313.698 98.4052 325.532 88.8574 339.871 88.8574C361.381 88.8574 368.17 98.866 373.951 107.364C369.628 122.196 352.853 124.395 337.948 133.64C336.191 132.213 333.95 131.357 331.51 131.357C325.868 131.357 321.294 135.931 321.294 141.573C321.294 147.215 325.868 151.789 331.51 151.789C331.666 151.789 331.821 151.786 331.974 151.779Z" fill="#191847"/>
<path d="M295.403 256.194C297.969 256.477 300.441 257.324 302.641 258.675C304.841 260.026 306.715 261.847 308.128 264.007C309.415 265.979 310.291 268.191 310.702 270.509C311.113 272.828 311.052 275.206 310.521 277.5C309.99 279.794 309.001 281.957 307.613 283.86C306.226 285.762 304.467 287.364 302.445 288.57C301.703 289.008 300.929 289.389 300.129 289.708L272.593 373.936C271.795 375.598 270.677 377.086 269.302 378.314C267.927 379.542 266.323 380.487 264.582 381.093C262.841 381.699 260.997 381.955 259.157 381.847C257.317 381.738 255.516 381.267 253.858 380.46C252.201 379.653 250.719 378.526 249.498 377.145C248.278 375.763 247.342 374.154 246.745 372.41C246.149 370.665 245.902 368.82 246.021 366.98C246.14 365.141 246.621 363.343 247.437 361.69L276.721 278.397C275.924 275.641 275.817 272.731 276.412 269.924C277.007 267.118 278.285 264.501 280.132 262.306C281.979 260.111 284.339 258.404 287.002 257.338C289.666 256.272 292.551 255.879 295.403 256.194Z" fill="#FFB7B7"/>
<path d="M261.997 288.021C261.997 288.021 277.775 314.979 300.586 301.502L278.479 386.1H259.854L240.586 382.502L245.981 347.549L261.997 288.021Z" fill="#D8F0CC"/>
<path d="M374.657 306.447L361.586 288.502C361.586 288.502 367.868 269.889 392.227 276.695C392.227 276.695 407.728 311.391 374.657 306.447Z" fill="#E5E5E5"/>
<path opacity="0.17" d="M374.657 306.447L361.586 288.502C361.586 288.502 367.868 269.889 392.227 276.695C392.227 276.695 407.728 311.391 374.657 306.447Z" fill="#2F2E41"/>
<path d="M378.118 243.751C381.889 245.504 384.905 248.552 386.619 252.341C388.332 256.131 388.628 260.409 387.453 264.398L416.737 347.69C417.553 349.343 418.034 351.141 418.153 352.981C418.272 354.821 418.026 356.666 417.429 358.411C416.832 360.155 415.897 361.764 414.676 363.146C413.455 364.528 411.974 365.654 410.316 366.461C408.658 367.268 406.857 367.74 405.017 367.848C403.177 367.957 401.333 367.701 399.592 367.094C397.851 366.488 396.247 365.544 394.872 364.315C393.497 363.087 392.378 361.599 391.581 359.937L364.044 275.709C363.245 275.39 362.471 275.009 361.729 274.571C359.706 273.365 357.948 271.763 356.56 269.86C355.173 267.958 354.184 265.795 353.653 263.501C353.122 261.206 353.06 258.829 353.472 256.51C353.883 254.191 354.759 251.98 356.046 250.008C357.459 247.847 359.333 246.026 361.533 244.675C363.733 243.324 366.205 242.477 368.771 242.195C371.971 241.832 375.208 242.371 378.118 243.751Z" fill="#FFB7B7"/>
<path d="M361.586 288.502C361.586 288.502 383.152 301.587 392.227 276.695L422.616 356.709L413.586 372.502L412.28 372.611C406.893 373.06 401.478 372.195 396.499 370.089C391.52 367.984 387.127 364.702 383.696 360.524C376.699 352.004 371.935 341.874 369.837 331.05L361.586 288.502Z" fill="#D8F0CC"/>
<path d="M370.25 139.15C368.7 138.65 364.88 139.12 362 145" stroke="black" stroke-width="0.300008"/>
<path d="M370 167.876C367.034 167.112 360.481 164.667 358 161" stroke="black" stroke-width="0.269663"/>
</g>
<defs>
<clipPath id="clip0_1273_5302">
<rect width="649" height="599.759" fill="white"/>
</clipPath>
</defs>
</svg>
