<svg width="84" height="420" viewBox="0 0 84 420" fill="none" xmlns="http://www.w3.org/2000/svg">
<circle cx="2" cy="2" r="2" fill="#7E8F75"/>
<circle cx="18" cy="2" r="2" fill="#7E8F75"/>
<circle cx="34" cy="2" r="2" fill="#7E8F75"/>
<circle cx="50" cy="2" r="2" fill="#7E8F75"/>
<circle cx="66" cy="2" r="2" fill="#7E8F75"/>
<circle cx="82" cy="2" r="2" fill="#7E8F75"/>
<circle cx="2" cy="18" r="2" fill="#7E8F75"/>
<circle cx="18" cy="18" r="2" fill="#7E8F75"/>
<circle cx="34" cy="18" r="2" fill="#7E8F75"/>
<circle cx="50" cy="18" r="2" fill="#7E8F75"/>
<circle cx="66" cy="18" r="2" fill="#7E8F75"/>
<circle cx="82" cy="18" r="2" fill="#7E8F75"/>
<circle cx="2" cy="34" r="2" fill="#7E8F75"/>
<circle cx="18" cy="34" r="2" fill="#7E8F75"/>
<circle cx="34" cy="34" r="2" fill="#7E8F75"/>
<circle cx="50" cy="34" r="2" fill="#7E8F75"/>
<circle cx="66" cy="34" r="2" fill="#7E8F75"/>
<circle cx="82" cy="34" r="2" fill="#7E8F75"/>
<circle cx="2" cy="50" r="2" fill="#7E8F75"/>
<circle cx="18" cy="50" r="2" fill="#7E8F75"/>
<circle cx="34" cy="50" r="2" fill="#7E8F75"/>
<circle cx="50" cy="50" r="2" fill="#7E8F75"/>
<circle cx="66" cy="50" r="2" fill="#7E8F75"/>
<circle cx="82" cy="50" r="2" fill="#7E8F75"/>
<circle cx="2" cy="66" r="2" fill="#7E8F75"/>
<circle cx="18" cy="66" r="2" fill="#7E8F75"/>
<circle cx="34" cy="66" r="2" fill="#7E8F75"/>
<circle cx="50" cy="66" r="2" fill="#7E8F75"/>
<circle cx="66" cy="66" r="2" fill="#7E8F75"/>
<circle cx="82" cy="66" r="2" fill="#7E8F75"/>
<circle cx="2" cy="82" r="2" fill="#7E8F75"/>
<circle cx="18" cy="82" r="2" fill="#7E8F75"/>
<circle cx="34" cy="82" r="2" fill="#7E8F75"/>
<circle cx="50" cy="82" r="2" fill="#7E8F75"/>
<circle cx="66" cy="82" r="2" fill="#7E8F75"/>
<circle cx="82" cy="82" r="2" fill="#7E8F75"/>
<circle cx="2" cy="98" r="2" fill="#7E8F75"/>
<circle cx="18" cy="98" r="2" fill="#7E8F75"/>
<circle cx="34" cy="98" r="2" fill="#7E8F75"/>
<circle cx="50" cy="98" r="2" fill="#7E8F75"/>
<circle cx="66" cy="98" r="2" fill="#7E8F75"/>
<circle cx="82" cy="98" r="2" fill="#7E8F75"/>
<circle cx="2" cy="114" r="2" fill="#7E8F75"/>
<circle cx="18" cy="114" r="2" fill="#7E8F75"/>
<circle cx="34" cy="114" r="2" fill="#7E8F75"/>
<circle cx="50" cy="114" r="2" fill="#7E8F75"/>
<circle cx="66" cy="114" r="2" fill="#7E8F75"/>
<circle cx="82" cy="114" r="2" fill="#7E8F75"/>
<circle cx="2" cy="130" r="2" fill="#7E8F75"/>
<circle cx="18" cy="130" r="2" fill="#7E8F75"/>
<circle cx="34" cy="130" r="2" fill="#7E8F75"/>
<circle cx="50" cy="130" r="2" fill="#7E8F75"/>
<circle cx="66" cy="130" r="2" fill="#7E8F75"/>
<circle cx="82" cy="130" r="2" fill="#7E8F75"/>
<circle cx="2" cy="146" r="2" fill="#7E8F75"/>
<circle cx="18" cy="146" r="2" fill="#7E8F75"/>
<circle cx="34" cy="146" r="2" fill="#7E8F75"/>
<circle cx="50" cy="146" r="2" fill="#7E8F75"/>
<circle cx="66" cy="146" r="2" fill="#7E8F75"/>
<circle cx="82" cy="146" r="2" fill="#7E8F75"/>
<circle cx="2" cy="162" r="2" fill="#7E8F75"/>
<circle cx="18" cy="162" r="2" fill="#7E8F75"/>
<circle cx="34" cy="162" r="2" fill="#7E8F75"/>
<circle cx="50" cy="162" r="2" fill="#7E8F75"/>
<circle cx="66" cy="162" r="2" fill="#7E8F75"/>
<circle cx="82" cy="162" r="2" fill="#7E8F75"/>
<circle cx="2" cy="178" r="2" fill="#7E8F75"/>
<circle cx="18" cy="178" r="2" fill="#7E8F75"/>
<circle cx="34" cy="178" r="2" fill="#7E8F75"/>
<circle cx="50" cy="178" r="2" fill="#7E8F75"/>
<circle cx="66" cy="178" r="2" fill="#7E8F75"/>
<circle cx="82" cy="178" r="2" fill="#7E8F75"/>
<circle cx="2" cy="194" r="2" fill="#7E8F75"/>
<circle cx="18" cy="194" r="2" fill="#7E8F75"/>
<circle cx="34" cy="194" r="2" fill="#7E8F75"/>
<circle cx="50" cy="194" r="2" fill="#7E8F75"/>
<circle cx="66" cy="194" r="2" fill="#7E8F75"/>
<circle cx="82" cy="194" r="2" fill="#7E8F75"/>
<circle cx="2" cy="210" r="2" fill="#7E8F75"/>
<circle cx="18" cy="210" r="2" fill="#7E8F75"/>
<circle cx="34" cy="210" r="2" fill="#7E8F75"/>
<circle cx="50" cy="210" r="2" fill="#7E8F75"/>
<circle cx="66" cy="210" r="2" fill="#7E8F75"/>
<circle cx="82" cy="210" r="2" fill="#7E8F75"/>
<circle cx="2" cy="226" r="2" fill="#7E8F75"/>
<circle cx="18" cy="226" r="2" fill="#7E8F75"/>
<circle cx="34" cy="226" r="2" fill="#7E8F75"/>
<circle cx="50" cy="226" r="2" fill="#7E8F75"/>
<circle cx="66" cy="226" r="2" fill="#7E8F75"/>
<circle cx="82" cy="226" r="2" fill="#7E8F75"/>
<circle cx="2" cy="242" r="2" fill="#7E8F75"/>
<circle cx="18" cy="242" r="2" fill="#7E8F75"/>
<circle cx="34" cy="242" r="2" fill="#7E8F75"/>
<circle cx="50" cy="242" r="2" fill="#7E8F75"/>
<circle cx="66" cy="242" r="2" fill="#7E8F75"/>
<circle cx="82" cy="242" r="2" fill="#7E8F75"/>
<circle cx="2" cy="258" r="2" fill="#7E8F75"/>
<circle cx="18" cy="258" r="2" fill="#7E8F75"/>
<circle cx="34" cy="258" r="2" fill="#7E8F75"/>
<circle cx="50" cy="258" r="2" fill="#7E8F75"/>
<circle cx="66" cy="258" r="2" fill="#7E8F75"/>
<circle cx="82" cy="258" r="2" fill="#7E8F75"/>
<circle cx="2" cy="274" r="2" fill="#7E8F75"/>
<circle cx="18" cy="274" r="2" fill="#7E8F75"/>
<circle cx="34" cy="274" r="2" fill="#7E8F75"/>
<circle cx="50" cy="274" r="2" fill="#7E8F75"/>
<circle cx="66" cy="274" r="2" fill="#7E8F75"/>
<circle cx="82" cy="274" r="2" fill="#7E8F75"/>
<circle cx="2" cy="290" r="2" fill="#7E8F75"/>
<circle cx="18" cy="290" r="2" fill="#7E8F75"/>
<circle cx="34" cy="290" r="2" fill="#7E8F75"/>
<circle cx="50" cy="290" r="2" fill="#7E8F75"/>
<circle cx="66" cy="290" r="2" fill="#7E8F75"/>
<circle cx="82" cy="290" r="2" fill="#7E8F75"/>
<circle cx="2" cy="306" r="2" fill="#7E8F75"/>
<circle cx="18" cy="306" r="2" fill="#7E8F75"/>
<circle cx="34" cy="306" r="2" fill="#7E8F75"/>
<circle cx="50" cy="306" r="2" fill="#7E8F75"/>
<circle cx="66" cy="306" r="2" fill="#7E8F75"/>
<circle cx="82" cy="306" r="2" fill="#7E8F75"/>
<circle cx="2" cy="322" r="2" fill="#7E8F75"/>
<circle cx="18" cy="322" r="2" fill="#7E8F75"/>
<circle cx="34" cy="322" r="2" fill="#7E8F75"/>
<circle cx="50" cy="322" r="2" fill="#7E8F75"/>
<circle cx="66" cy="322" r="2" fill="#7E8F75"/>
<circle cx="82" cy="322" r="2" fill="#7E8F75"/>
<circle cx="2" cy="338" r="2" fill="#7E8F75"/>
<circle cx="18" cy="338" r="2" fill="#7E8F75"/>
<circle cx="34" cy="338" r="2" fill="#7E8F75"/>
<circle cx="50" cy="338" r="2" fill="#7E8F75"/>
<circle cx="66" cy="338" r="2" fill="#7E8F75"/>
<circle cx="82" cy="338" r="2" fill="#7E8F75"/>
<circle cx="2" cy="354" r="2" fill="#7E8F75"/>
<circle cx="18" cy="354" r="2" fill="#7E8F75"/>
<circle cx="34" cy="354" r="2" fill="#7E8F75"/>
<circle cx="50" cy="354" r="2" fill="#7E8F75"/>
<circle cx="66" cy="354" r="2" fill="#7E8F75"/>
<circle cx="82" cy="354" r="2" fill="#7E8F75"/>
<circle cx="2" cy="370" r="2" fill="#7E8F75"/>
<circle cx="18" cy="370" r="2" fill="#7E8F75"/>
<circle cx="34" cy="370" r="2" fill="#7E8F75"/>
<circle cx="50" cy="370" r="2" fill="#7E8F75"/>
<circle cx="66" cy="370" r="2" fill="#7E8F75"/>
<circle cx="82" cy="370" r="2" fill="#7E8F75"/>
<circle cx="2" cy="386" r="2" fill="#7E8F75"/>
<circle cx="18" cy="386" r="2" fill="#7E8F75"/>
<circle cx="34" cy="386" r="2" fill="#7E8F75"/>
<circle cx="50" cy="386" r="2" fill="#7E8F75"/>
<circle cx="66" cy="386" r="2" fill="#7E8F75"/>
<circle cx="82" cy="386" r="2" fill="#7E8F75"/>
<circle cx="2" cy="402" r="2" fill="#7E8F75"/>
<circle cx="18" cy="402" r="2" fill="#7E8F75"/>
<circle cx="34" cy="402" r="2" fill="#7E8F75"/>
<circle cx="50" cy="402" r="2" fill="#7E8F75"/>
<circle cx="66" cy="402" r="2" fill="#7E8F75"/>
<circle cx="82" cy="402" r="2" fill="#7E8F75"/>
<circle cx="2" cy="418" r="2" fill="#7E8F75"/>
<circle cx="18" cy="418" r="2" fill="#7E8F75"/>
<circle cx="34" cy="418" r="2" fill="#7E8F75"/>
<circle cx="50" cy="418" r="2" fill="#7E8F75"/>
<circle cx="66" cy="418" r="2" fill="#7E8F75"/>
<circle cx="82" cy="418" r="2" fill="#7E8F75"/>
</svg>
