<svg width="52" height="32" viewBox="0 0 52 32" fill="none" xmlns="http://www.w3.org/2000/svg">
<g clip-path="url(#clip0_1084_5564)">
<path d="M15.9105 12.26C16.5105 12.12 16.6105 12.48 15.9705 12.74C15.1905 13.04 15.2305 13.1 15.1105 13.44C14.5705 14.84 13.4105 16.06 11.9105 16.04C11.4905 16.04 11.0705 15.9 10.9905 15.44C10.8105 14.52 11.7105 13.92 12.2705 13.62C12.7105 13.38 13.1305 13.24 13.5905 13.06C14.3905 12.78 15.0505 7.82 14.6305 6.68C14.4305 6.14 13.9905 5.88 13.5105 5.88C11.6505 5.88 10.4305 11.68 9.77047 15.8C9.41047 17.96 8.97047 21.58 8.61047 22.9C8.41047 23.66 8.13047 24.22 7.77047 24.22C7.33047 24.22 7.23047 23.82 7.23047 23.4C7.25047 18.24 7.93047 12.02 8.25047 6.66C8.27047 6.38 8.29047 5.96 8.35047 5.7C8.47047 5.58 8.67047 5.5 8.85047 5.5C9.09047 5.5 9.33047 5.62 9.39047 5.9C10.1305 8.82 8.67047 17.44 8.41047 21.06C8.41047 21.18 8.99047 17.6 9.25047 15.82C9.91047 11.62 11.1105 5.26 13.7905 5.3C14.4105 5.32 15.0305 5.64 15.4505 6.26C15.9505 6.98 16.1105 8.04 16.0705 9.12C16.0505 10.3 15.7905 11.5 15.5705 12.28C15.5105 12.46 15.6705 12.34 15.9105 12.26ZM11.8105 15.72C12.9305 15.7 13.8105 13.52 13.6705 13.54C13.3505 13.62 12.8905 13.82 12.4505 14.08C11.8905 14.42 11.4105 14.88 11.4305 15.36C11.4305 15.64 11.6105 15.72 11.8105 15.72ZM22.0609 16.88C22.1609 16.72 22.2609 16.68 22.3609 16.68C22.5009 16.68 22.6009 16.78 22.5609 16.9C21.9409 18.52 19.6809 24.38 17.7209 24.38C16.6609 24.38 16.2209 23.5 16.2409 22.48C16.2609 21.2 17.0009 19.64 17.0409 18.3C17.1209 16.46 15.1009 17.62 14.9209 15.02C14.8609 14 15.4009 12.98 16.5009 13.04C16.9409 13.06 17.2809 13.36 17.3209 13.96C17.3809 14.78 16.9609 15.98 16.7209 16.4C16.6809 16.48 16.7809 16.52 16.9409 16.6C17.6209 16.94 18.3009 17.24 18.5009 18.06C18.5609 18.38 18.6009 18.68 18.5809 18.94C18.5609 20.28 17.7009 21.62 17.7209 23.2C17.7209 23.5 17.7809 23.74 17.9609 23.74C19.2409 23.74 21.2609 18.5 22.0609 16.88ZM16.1409 16.24C16.3409 16.24 16.8809 14.6 16.8409 13.9C16.8409 13.7 16.7609 13.56 16.6409 13.56C16.1609 13.58 15.8009 14.8 15.8209 15.58C15.8209 15.96 15.9609 16.24 16.1409 16.24ZM23.0747 14C22.4547 13.9 22.5547 13.74 22.5947 13.18C22.6347 12.76 22.8147 12.52 23.2547 12.52C23.5547 12.52 23.8547 12.7 23.8747 13.04C23.8747 13.18 23.7747 13.7 23.7547 13.8C23.6747 14.12 23.3347 14.04 23.0747 14ZM27.8947 16.64C28.0347 16.66 28.0347 16.8 27.9947 16.96C27.6147 18.34 25.6947 22.14 24.1347 22.16C21.2347 22.22 21.7747 17.28 22.3147 15.62C22.4547 15.24 22.6347 15.26 22.9947 15.26C23.1547 15.26 23.2947 15.26 23.4547 15.3C23.6347 15.36 23.6547 15.44 23.6347 15.56C23.4547 16.54 22.5747 21.54 24.2347 21.56C25.5747 21.56 27.2147 17.46 27.5947 16.76C27.6347 16.66 27.7547 16.6 27.8947 16.64ZM38.063 16.6C38.143 16.64 38.183 16.74 38.143 16.82C37.583 18.06 34.783 20.04 33.603 20.9C33.303 21.1 33.223 21.6 33.123 22.12C32.483 25 30.923 30.3 27.263 30.28C26.383 30.28 25.663 29.88 25.563 28.66C25.343 25.84 28.723 23.28 30.803 21.88C31.103 21.7 31.883 21.2 31.963 20.88C32.103 20.42 32.423 17.38 32.443 16.7C31.843 18.38 31.083 20.68 29.483 20.66C28.063 20.66 27.603 18.24 27.523 16.66C27.483 16.12 27.483 14.46 27.763 14.16C27.823 14.08 28.083 13.98 28.343 13.98C28.703 13.98 29.063 14.18 29.023 14.92L28.923 16.76C28.903 17.28 28.983 20.14 29.723 20.16C31.243 20.18 32.123 14.72 32.643 14.24C32.803 14.08 33.123 14 33.423 14C33.623 14 33.823 14.04 33.943 14.12C34.183 14.26 33.463 19.42 33.423 20.14C33.423 20.34 33.483 20.24 33.623 20.16C34.883 19.42 36.743 17.84 37.703 16.74C37.783 16.64 37.943 16.54 38.063 16.6ZM31.763 22.16C31.803 21.76 31.623 21.98 31.403 22.14C29.523 23.38 28.863 23.78 27.323 25.44C26.363 26.48 25.723 27.9 26.223 29.32C26.363 29.7 26.883 29.86 27.263 29.86C29.723 29.82 31.563 24.26 31.763 22.16ZM44.7802 16.82C44.8402 16.68 44.9202 16.64 45.0002 16.64C45.1602 16.64 45.3002 16.82 45.2402 16.98C45.1402 17.26 44.5002 18.42 44.3202 18.74C43.8602 19.6 43.2802 21 42.2402 21C41.0402 21 40.8002 19.82 40.7802 18.74C40.7602 18.32 40.8002 17.9 40.8002 17.58C40.7202 17.74 40.2202 19.34 39.1602 19.42C38.2002 19.48 37.6602 18.44 37.6402 17.24C37.6002 15.18 38.9002 12.22 41.3002 12.28C42.0602 12.3 42.4402 12.6 42.6002 13.36C42.6402 13.48 42.6402 13.6 42.6202 13.72C42.6002 13.88 42.5002 13.94 42.3602 13.92C42.2202 13.9 42.1402 13.82 42.1402 13.66C42.1402 13.32 41.9602 12.78 41.5602 12.78C40.5002 12.78 38.9602 16.54 38.9602 17.86C38.9802 18.42 39.0602 18.9 39.3402 18.9C40.1802 18.9 41.1402 14.84 41.3002 14.16C41.4202 14.02 42.2002 14.28 42.3002 14.42C42.5402 14.72 42.3402 15.42 42.3002 15.8C42.2602 16.14 42.0002 17.8 41.9802 19.06C41.9602 19.92 42.0402 20.6 42.3802 20.62C43.0802 20.62 44.0802 18.26 44.4002 17.6C44.5202 17.34 44.6402 17.08 44.7802 16.82Z" fill="#333333"/>
</g>
<defs>
<clipPath id="clip0_1084_5564">
<rect width="52" height="32" fill="white"/>
</clipPath>
</defs>
</svg>
