<svg width="226" height="49" viewBox="0 0 226 49" fill="none" xmlns="http://www.w3.org/2000/svg">
<path d="M28.1052 26.0519C27.0542 25.9054 26.0141 25.7124 24.9757 25.6178C23.4244 25.5017 22.0944 26.0244 21.0794 27.2077C20.401 28.0042 19.7639 28.8349 19.1862 29.7283C17.6619 32.0411 16.485 34.5571 15.1839 36.9707C15.0093 37.2972 14.8941 37.6864 14.7429 38.0183C14.6872 38.1522 14.626 38.3092 14.5288 38.409C14.284 38.7191 13.9367 38.8341 13.5966 38.7061C13.2564 38.578 13.0405 38.2342 13.1089 37.8341C13.1341 37.6197 13.188 37.3875 13.2888 37.1663C13.6344 36.3167 13.7873 35.4469 13.8935 34.5662C14.1004 32.828 14.2372 31.0734 14.077 29.3232C13.8467 27.2386 13.2114 25.3045 11.9048 23.6058C11.2426 22.7421 10.5515 21.8963 9.86584 21.0272C8.81664 19.7065 7.4993 18.6904 6.11897 17.7332C5.90661 17.5859 5.63126 17.4974 5.37211 17.3393C5.19575 17.2493 4.99599 17.1539 4.83042 17.0175C4.47589 16.7393 4.4039 16.3066 4.58926 15.9337C4.76922 15.584 5.17414 15.4335 5.58446 15.5778C5.8832 15.6718 6.19454 15.8176 6.47709 15.9812C8.08417 16.9178 9.88922 17.2152 11.7051 17.4662C12.3709 17.5721 13.0422 17.6548 13.7063 17.6624C15.2612 17.6569 16.5965 17.111 17.5935 15.8991C18.3799 14.9563 19.0134 13.9291 19.5461 12.8049C20.3937 11.0689 21.3997 9.39413 22.071 7.56811C22.4093 6.6435 22.771 5.72432 23.1147 4.7765C23.2209 4.53201 23.3037 4.28209 23.4333 4.04304C23.633 3.82032 23.8922 3.66035 24.2017 3.70787C24.5113 3.75538 24.7542 3.98318 24.7722 4.32995C24.8082 4.70538 24.8154 5.09858 24.7524 5.47547C24.4699 7.22059 24.1873 8.96571 23.8994 10.734C23.6493 12.3399 23.3523 13.9348 23.1544 15.5283C22.9978 16.8378 23.1616 18.1483 23.6331 19.4081C24.056 20.5587 24.8227 21.3977 25.7963 22.0891C26.4334 22.5309 27.0416 22.9904 27.6895 23.3858C28.0314 23.6122 28.4418 23.7565 28.8179 23.9419C29.5467 24.3071 30.3044 24.6546 31.0279 25.0431C31.3572 25.2176 31.5318 25.5274 31.4688 25.9042C31.4346 26.2634 31.143 26.5626 30.7363 26.6149C30.4574 26.6479 30.1604 26.6522 29.8797 26.5869C29.266 26.4687 28.6397 26.2986 28.0315 26.1571C28.089 26.1216 28.0998 26.0751 28.1052 26.0519Z" fill="#EAB308"/>
<path d="M8.72616 42.4175V25.5278H14.7464C16.0604 25.5278 17.149 25.767 18.0122 26.2453C18.8754 26.7236 19.5214 27.3779 19.9502 28.2081C20.379 29.0327 20.5935 29.9619 20.5935 30.9955C20.5935 32.0346 20.3763 32.9693 19.942 33.7995C19.5131 34.6241 18.8644 35.2784 17.9957 35.7622C17.1325 36.2405 16.0467 36.4797 14.7382 36.4797H10.5982V34.319H14.5072C15.3374 34.319 16.0109 34.1761 16.5277 33.8902C17.0445 33.5988 17.4239 33.2029 17.6658 32.7026C17.9077 32.2023 18.0287 31.6333 18.0287 30.9955C18.0287 30.3577 17.9077 29.7915 17.6658 29.2966C17.4239 28.8018 17.0418 28.4142 16.5195 28.1338C16.0027 27.8534 15.3209 27.7132 14.4743 27.7132H11.2745V42.4175H8.72616ZM23.383 42.4175V29.7502H25.7663V31.7625H25.8983C26.1292 31.0807 26.5361 30.5447 27.1188 30.1543C27.7071 29.7585 28.3724 29.5605 29.1146 29.5605C29.2685 29.5605 29.45 29.566 29.6589 29.577C29.8733 29.588 30.041 29.6018 30.1619 29.6183V31.9769C30.063 31.9494 29.887 31.9192 29.6341 31.8862C29.3812 31.8477 29.1283 31.8284 28.8754 31.8284C28.2926 31.8284 27.7731 31.9522 27.3168 32.1996C26.8659 32.4415 26.5086 32.7796 26.2447 33.2139C25.9808 33.6428 25.8488 34.1321 25.8488 34.6819V42.4175H23.383ZM32.2958 42.4175V29.7502H34.7617V42.4175H32.2958ZM33.5411 27.7957C33.1123 27.7957 32.7439 27.6528 32.436 27.3669C32.1336 27.0755 31.9824 26.7291 31.9824 26.3278C31.9824 25.9209 32.1336 25.5745 32.436 25.2886C32.7439 24.9973 33.1123 24.8516 33.5411 24.8516C33.97 24.8516 34.3356 24.9973 34.638 25.2886C34.9458 25.5745 35.0998 25.9209 35.0998 26.3278C35.0998 26.7291 34.9458 27.0755 34.638 27.3669C34.3356 27.6528 33.97 27.7957 33.5411 27.7957ZM39.6376 47.1677C39.2693 47.1677 38.9339 47.1375 38.6315 47.077C38.3291 47.022 38.1037 46.9615 37.9553 46.8956L38.5491 44.8751C38.9999 44.996 39.4012 45.0482 39.7531 45.0318C40.105 45.0153 40.4156 44.8833 40.685 44.6359C40.9599 44.3885 41.2018 43.9844 41.4107 43.4236L41.7159 42.5824L37.0811 29.7502H39.7201L42.9282 39.5805H43.0601L46.2682 29.7502H48.9154L43.6951 44.1081C43.4532 44.7679 43.1453 45.3259 42.7715 45.7822C42.3976 46.244 41.9523 46.5904 41.4355 46.8213C40.9187 47.0522 40.3194 47.1677 39.6376 47.1677ZM54.5563 42.6979C53.7536 42.6979 53.0279 42.5494 52.3791 42.2525C51.7304 41.9502 51.2163 41.5131 50.8369 40.9413C50.4631 40.3695 50.2762 39.6685 50.2762 38.8383C50.2762 38.1236 50.4136 37.5353 50.6885 37.0735C50.9634 36.6117 51.3345 36.246 51.8018 35.9766C52.2692 35.7072 52.7915 35.5038 53.3688 35.3664C53.946 35.2289 54.5343 35.1245 55.1336 35.053C55.8923 34.965 56.5081 34.8935 56.9809 34.8386C57.4537 34.7781 57.7973 34.6819 58.0118 34.5499C58.2262 34.418 58.3334 34.2036 58.3334 33.9067V33.8489C58.3334 33.1287 58.13 32.5707 57.7231 32.1748C57.3218 31.779 56.7225 31.581 55.9253 31.581C55.0951 31.581 54.4408 31.7652 53.9625 32.1336C53.4897 32.4964 53.1626 32.9005 52.9811 33.3459L50.6638 32.8181C50.9387 32.0484 51.34 31.4271 51.8678 30.9543C52.4011 30.476 53.0141 30.1296 53.7069 29.9152C54.3996 29.6952 55.1281 29.5853 55.8923 29.5853C56.3981 29.5853 56.9342 29.6458 57.5005 29.7667C58.0722 29.8822 58.6055 30.0966 59.1004 30.41C59.6007 30.7234 60.0103 31.1714 60.3291 31.7542C60.648 32.3315 60.8075 33.082 60.8075 34.0056V42.4175H58.3994V40.6856H58.3004C58.141 41.0045 57.9018 41.3179 57.5829 41.6258C57.264 41.9337 56.8544 42.1893 56.3541 42.3927C55.8538 42.5962 55.2545 42.6979 54.5563 42.6979ZM55.0924 40.7186C55.7741 40.7186 56.3569 40.5839 56.8407 40.3145C57.33 40.0451 57.7011 39.6933 57.954 39.2589C58.2124 38.8191 58.3416 38.349 58.3416 37.8487V36.2158C58.2537 36.3038 58.0832 36.3862 57.8303 36.4632C57.5829 36.5347 57.2998 36.5979 56.9809 36.6529C56.662 36.7024 56.3514 36.7491 56.049 36.7931C55.7466 36.8316 55.4937 36.8646 55.2903 36.8921C54.812 36.9525 54.3749 37.0542 53.979 37.1972C53.5887 37.3401 53.2753 37.5463 53.0389 37.8157C52.808 38.0796 52.6925 38.4315 52.6925 38.8713C52.6925 39.4816 52.9179 39.9434 53.3688 40.2568C53.8196 40.5647 54.3941 40.7186 55.0924 40.7186ZM66.5576 34.8963V42.4175H64.0918V29.7502H66.4587V31.812H66.6154C66.9067 31.1412 67.3631 30.6024 67.9843 30.1956C68.6111 29.7887 69.4001 29.5853 70.3512 29.5853C71.2144 29.5853 71.9703 29.7667 72.6191 30.1296C73.2679 30.4869 73.7709 31.0202 74.1283 31.7295C74.4857 32.4387 74.6643 33.3156 74.6643 34.3602V42.4175H72.1985V34.6571C72.1985 33.739 71.9593 33.0215 71.481 32.5047C71.0027 31.9824 70.3457 31.7212 69.51 31.7212C68.9382 31.7212 68.4297 31.8449 67.9843 32.0923C67.5445 32.3398 67.1954 32.7026 66.937 33.1809C66.6841 33.6538 66.5576 34.2255 66.5576 34.8963ZM83.2824 47.4316C82.2762 47.4316 81.4103 47.2997 80.6846 47.0358C79.9644 46.7718 79.3761 46.4227 78.9197 45.9884C78.4634 45.5541 78.1225 45.0785 77.8971 44.5617L80.0166 43.6875C80.165 43.9294 80.363 44.1851 80.6104 44.4545C80.8633 44.7294 81.2041 44.963 81.633 45.1555C82.0673 45.3479 82.6254 45.4441 83.3071 45.4441C84.2418 45.4441 85.0142 45.2159 85.6245 44.7596C86.2348 44.3088 86.5399 43.5885 86.5399 42.5989V40.1083H86.3832C86.2348 40.3777 86.0203 40.6774 85.7399 41.0073C85.465 41.3371 85.0857 41.623 84.6019 41.8649C84.118 42.1068 83.4885 42.2278 82.7133 42.2278C81.7127 42.2278 80.811 41.9941 80.0083 41.5268C79.2111 41.054 78.5789 40.3585 78.1115 39.4403C77.6497 38.5167 77.4188 37.3814 77.4188 36.0344C77.4188 34.6874 77.647 33.5328 78.1033 32.5707C78.5651 31.6085 79.1974 30.8718 80.0001 30.3605C80.8028 29.8437 81.7127 29.5853 82.7298 29.5853C83.516 29.5853 84.151 29.7172 84.6349 29.9811C85.1187 30.2395 85.4953 30.5419 85.7647 30.8883C86.0396 31.2347 86.2512 31.5398 86.3997 31.8037H86.5811V29.7502H88.9975V42.6979C88.9975 43.7865 88.7446 44.6799 88.2388 45.3781C87.7329 46.0764 87.0484 46.5932 86.1853 46.9285C85.3276 47.2639 84.36 47.4316 83.2824 47.4316ZM83.2576 40.1826C83.9669 40.1826 84.5661 40.0176 85.0554 39.6878C85.5503 39.3524 85.9241 38.8741 86.177 38.2528C86.4354 37.626 86.5646 36.8756 86.5646 36.0014C86.5646 35.1492 86.4382 34.3987 86.1853 33.75C85.9324 33.1012 85.5613 32.5954 85.0719 32.2325C84.5826 31.8642 83.9779 31.68 83.2576 31.68C82.5154 31.68 81.8969 31.8724 81.4021 32.2573C80.9073 32.6366 80.5334 33.1535 80.2805 33.8077C80.0331 34.462 79.9094 35.1932 79.9094 36.0014C79.9094 36.8316 80.0358 37.56 80.2887 38.1868C80.5416 38.8136 80.9155 39.3029 81.4103 39.6548C81.9106 40.0066 82.5264 40.1826 83.2576 40.1826ZM95.9908 42.6979C95.1881 42.6979 94.4624 42.5494 93.8137 42.2525C93.1649 41.9502 92.6508 41.5131 92.2715 40.9413C91.8976 40.3695 91.7107 39.6685 91.7107 38.8383C91.7107 38.1236 91.8482 37.5353 92.123 37.0735C92.3979 36.6117 92.7691 36.246 93.2364 35.9766C93.7037 35.7072 94.226 35.5038 94.8033 35.3664C95.3806 35.2289 95.9689 35.1245 96.5681 35.053C97.3268 34.965 97.9426 34.8935 98.4154 34.8386C98.8883 34.7781 99.2319 34.6819 99.4463 34.5499C99.6607 34.418 99.7679 34.2036 99.7679 33.9067V33.8489C99.7679 33.1287 99.5645 32.5707 99.1577 32.1748C98.7563 31.779 98.157 31.581 97.3598 31.581C96.5296 31.581 95.8754 31.7652 95.3971 32.1336C94.9242 32.4964 94.5971 32.9005 94.4157 33.3459L92.0983 32.8181C92.3732 32.0484 92.7746 31.4271 93.3024 30.9543C93.8357 30.476 94.4487 30.1296 95.1414 29.9152C95.8342 29.6952 96.5626 29.5853 97.3268 29.5853C97.8327 29.5853 98.3687 29.6458 98.935 29.7667C99.5068 29.8822 100.04 30.0966 100.535 30.41C101.035 30.7234 101.445 31.1714 101.764 31.7542C102.083 32.3315 102.242 33.082 102.242 34.0056V42.4175H99.8339V40.6856H99.7349C99.5755 41.0045 99.3363 41.3179 99.0175 41.6258C98.6986 41.9337 98.289 42.1893 97.7887 42.3927C97.2884 42.5962 96.6891 42.6979 95.9908 42.6979ZM96.5269 40.7186C97.2086 40.7186 97.7914 40.5839 98.2752 40.3145C98.7646 40.0451 99.1357 39.6933 99.3886 39.2589C99.647 38.8191 99.7762 38.349 99.7762 37.8487V36.2158C99.6882 36.3038 99.5178 36.3862 99.2649 36.4632C99.0175 36.5347 98.7343 36.5979 98.4154 36.6529C98.0966 36.7024 97.7859 36.7491 97.4835 36.7931C97.1812 36.8316 96.9282 36.8646 96.7248 36.8921C96.2465 36.9525 95.8094 37.0542 95.4136 37.1972C95.0232 37.3401 94.7098 37.5463 94.4734 37.8157C94.2425 38.0796 94.127 38.4315 94.127 38.8713C94.127 39.4816 94.3525 39.9434 94.8033 40.2568C95.2541 40.5647 95.8287 40.7186 96.5269 40.7186ZM111.87 25.5278H114.963L120.34 38.6569H120.538L125.915 25.5278H129.007V42.4175H126.583V30.1956H126.426L121.445 42.3927H119.433L114.452 30.1873H114.295V42.4175H111.87V25.5278ZM136.201 42.6979C135.398 42.6979 134.672 42.5494 134.024 42.2525C133.375 41.9502 132.861 41.5131 132.481 40.9413C132.108 40.3695 131.921 39.6685 131.921 38.8383C131.921 38.1236 132.058 37.5353 132.333 37.0735C132.608 36.6117 132.979 36.246 133.446 35.9766C133.914 35.7072 134.436 35.5038 135.013 35.3664C135.59 35.2289 136.179 35.1245 136.778 35.053C137.537 34.965 138.152 34.8935 138.625 34.8386C139.098 34.7781 139.442 34.6819 139.656 34.5499C139.871 34.418 139.978 34.2036 139.978 33.9067V33.8489C139.978 33.1287 139.774 32.5707 139.368 32.1748C138.966 31.779 138.367 31.581 137.57 31.581C136.74 31.581 136.085 31.7652 135.607 32.1336C135.134 32.4964 134.807 32.9005 134.626 33.3459L132.308 32.8181C132.583 32.0484 132.984 31.4271 133.512 30.9543C134.046 30.476 134.659 30.1296 135.351 29.9152C136.044 29.6952 136.773 29.5853 137.537 29.5853C138.043 29.5853 138.579 29.6458 139.145 29.7667C139.717 29.8822 140.25 30.0966 140.745 30.41C141.245 30.7234 141.655 31.1714 141.974 31.7542C142.292 32.3315 142.452 33.082 142.452 34.0056V42.4175H140.044V40.6856H139.945C139.785 41.0045 139.546 41.3179 139.227 41.6258C138.908 41.9337 138.499 42.1893 137.999 42.3927C137.498 42.5962 136.899 42.6979 136.201 42.6979ZM136.737 40.7186C137.419 40.7186 138.001 40.5839 138.485 40.3145C138.974 40.0451 139.346 39.6933 139.598 39.2589C139.857 38.8191 139.986 38.349 139.986 37.8487V36.2158C139.898 36.3038 139.728 36.3862 139.475 36.4632C139.227 36.5347 138.944 36.5979 138.625 36.6529C138.306 36.7024 137.996 36.7491 137.693 36.7931C137.391 36.8316 137.138 36.8646 136.935 36.8921C136.456 36.9525 136.019 37.0542 135.623 37.1972C135.233 37.3401 134.92 37.5463 134.683 37.8157C134.452 38.0796 134.337 38.4315 134.337 38.8713C134.337 39.4816 134.562 39.9434 135.013 40.2568C135.464 40.5647 136.039 40.7186 136.737 40.7186ZM150.478 42.6649C149.456 42.6649 148.543 42.4037 147.74 41.8814C146.943 41.3536 146.316 40.6032 145.86 39.63C145.409 38.6514 145.184 37.4776 145.184 36.1086C145.184 34.7396 145.412 33.5685 145.868 32.5954C146.33 31.6223 146.962 30.8773 147.765 30.3605C148.568 29.8437 149.478 29.5853 150.495 29.5853C151.281 29.5853 151.913 29.7172 152.391 29.9811C152.875 30.2395 153.249 30.5419 153.513 30.8883C153.782 31.2347 153.991 31.5398 154.14 31.8037H154.288V25.5278H156.754V42.4175H154.346V40.4465H154.14C153.991 40.7159 153.777 41.0238 153.497 41.3701C153.222 41.7165 152.842 42.0189 152.358 42.2773C151.875 42.5357 151.248 42.6649 150.478 42.6649ZM151.022 40.5619C151.732 40.5619 152.331 40.375 152.82 40.0011C153.315 39.6218 153.689 39.0967 153.942 38.426C154.2 37.7552 154.329 36.9745 154.329 36.0839C154.329 35.2042 154.203 34.4345 153.95 33.7747C153.697 33.115 153.326 32.6009 152.837 32.2325C152.347 31.8642 151.743 31.68 151.022 31.68C150.28 31.68 149.662 31.8724 149.167 32.2573C148.672 32.6421 148.298 33.1672 148.045 33.8324C147.798 34.4977 147.674 35.2482 147.674 36.0839C147.674 36.9305 147.801 37.692 148.054 38.3682C148.306 39.0445 148.68 39.5805 149.175 39.9764C149.675 40.3667 150.291 40.5619 151.022 40.5619ZM162.739 34.8963V42.4175H160.273V25.5278H162.706V31.812H162.863C163.16 31.1302 163.613 30.5887 164.224 30.1873C164.834 29.786 165.631 29.5853 166.615 29.5853C167.484 29.5853 168.243 29.764 168.891 30.1213C169.546 30.4787 170.052 31.012 170.409 31.7212C170.772 32.425 170.953 33.3046 170.953 34.3602V42.4175H168.487V34.6571C168.487 33.728 168.248 33.0078 167.77 32.4964C167.292 31.9796 166.626 31.7212 165.774 31.7212C165.191 31.7212 164.669 31.8449 164.207 32.0923C163.751 32.3398 163.391 32.7026 163.127 33.1809C162.868 33.6538 162.739 34.2255 162.739 34.8963ZM177.93 42.6979C177.127 42.6979 176.402 42.5494 175.753 42.2525C175.104 41.9502 174.59 41.5131 174.211 40.9413C173.837 40.3695 173.65 39.6685 173.65 38.8383C173.65 38.1236 173.787 37.5353 174.062 37.0735C174.337 36.6117 174.708 36.246 175.176 35.9766C175.643 35.7072 176.165 35.5038 176.743 35.3664C177.32 35.2289 177.908 35.1245 178.507 35.053C179.266 34.965 179.882 34.8935 180.355 34.8386C180.828 34.7781 181.171 34.6819 181.386 34.5499C181.6 34.418 181.707 34.2036 181.707 33.9067V33.8489C181.707 33.1287 181.504 32.5707 181.097 32.1748C180.696 31.779 180.096 31.581 179.299 31.581C178.469 31.581 177.815 31.7652 177.336 32.1336C176.863 32.4964 176.536 32.9005 176.355 33.3459L174.038 32.8181C174.312 32.0484 174.714 31.4271 175.242 30.9543C175.775 30.476 176.388 30.1296 177.081 29.9152C177.773 29.6952 178.502 29.5853 179.266 29.5853C179.772 29.5853 180.308 29.6458 180.874 29.7667C181.446 29.8822 181.979 30.0966 182.474 30.41C182.974 30.7234 183.384 31.1714 183.703 31.7542C184.022 32.3315 184.181 33.082 184.181 34.0056V42.4175H181.773V40.6856H181.674C181.515 41.0045 181.276 41.3179 180.957 41.6258C180.638 41.9337 180.228 42.1893 179.728 42.3927C179.228 42.5962 178.628 42.6979 177.93 42.6979ZM178.466 40.7186C179.148 40.7186 179.731 40.5839 180.214 40.3145C180.704 40.0451 181.075 39.6933 181.328 39.2589C181.586 38.8191 181.715 38.349 181.715 37.8487V36.2158C181.627 36.3038 181.457 36.3862 181.204 36.4632C180.957 36.5347 180.674 36.5979 180.355 36.6529C180.036 36.7024 179.725 36.7491 179.423 36.7931C179.12 36.8316 178.867 36.8646 178.664 36.8921C178.186 36.9525 177.749 37.0542 177.353 37.1972C176.962 37.3401 176.649 37.5463 176.413 37.8157C176.182 38.0796 176.066 38.4315 176.066 38.8713C176.066 39.4816 176.292 39.9434 176.743 40.2568C177.193 40.5647 177.768 40.7186 178.466 40.7186ZM197.848 29.7502L193.255 42.4175H190.616L186.014 29.7502H188.661L191.869 39.4981H192.001L195.201 29.7502H197.848ZM203.489 42.6979C202.687 42.6979 201.961 42.5494 201.312 42.2525C200.663 41.9502 200.149 41.5131 199.77 40.9413C199.396 40.3695 199.209 39.6685 199.209 38.8383C199.209 38.1236 199.347 37.5353 199.622 37.0735C199.896 36.6117 200.268 36.246 200.735 35.9766C201.202 35.7072 201.724 35.5038 202.302 35.3664C202.879 35.2289 203.467 35.1245 204.067 35.053C204.825 34.965 205.441 34.8935 205.914 34.8386C206.387 34.7781 206.73 34.6819 206.945 34.5499C207.159 34.418 207.266 34.2036 207.266 33.9067V33.8489C207.266 33.1287 207.063 32.5707 206.656 32.1748C206.255 31.779 205.656 31.581 204.858 31.581C204.028 31.581 203.374 31.7652 202.896 32.1336C202.423 32.4964 202.096 32.9005 201.914 33.3459L199.597 32.8181C199.872 32.0484 200.273 31.4271 200.801 30.9543C201.334 30.476 201.947 30.1296 202.64 29.9152C203.333 29.6952 204.061 29.5853 204.825 29.5853C205.331 29.5853 205.867 29.6458 206.433 29.7667C207.005 29.8822 207.539 30.0966 208.033 30.41C208.534 30.7234 208.943 31.1714 209.262 31.7542C209.581 32.3315 209.74 33.082 209.74 34.0056V42.4175H207.332V40.6856H207.233C207.074 41.0045 206.835 41.3179 206.516 41.6258C206.197 41.9337 205.787 42.1893 205.287 42.3927C204.787 42.5962 204.188 42.6979 203.489 42.6979ZM204.025 40.7186C204.707 40.7186 205.29 40.5839 205.774 40.3145C206.263 40.0451 206.634 39.6933 206.887 39.2589C207.145 38.8191 207.275 38.349 207.275 37.8487V36.2158C207.187 36.3038 207.016 36.3862 206.763 36.4632C206.516 36.5347 206.233 36.5979 205.914 36.6529C205.595 36.7024 205.284 36.7491 204.982 36.7931C204.68 36.8316 204.427 36.8646 204.223 36.8921C203.745 36.9525 203.308 37.0542 202.912 37.1972C202.522 37.3401 202.208 37.5463 201.972 37.8157C201.741 38.0796 201.626 38.4315 201.626 38.8713C201.626 39.4816 201.851 39.9434 202.302 40.2568C202.753 40.5647 203.327 40.7186 204.025 40.7186ZM215.491 34.8963V42.4175H213.025V29.7502H215.392V31.812H215.548C215.84 31.1412 216.296 30.6024 216.917 30.1956C217.544 29.7887 218.333 29.5853 219.284 29.5853C220.147 29.5853 220.903 29.7667 221.552 30.1296C222.201 30.4869 222.704 31.0202 223.061 31.7295C223.419 32.4387 223.597 33.3156 223.597 34.3602V42.4175H221.132V34.6571C221.132 33.739 220.892 33.0215 220.414 32.5047C219.936 31.9824 219.279 31.7212 218.443 31.7212C217.871 31.7212 217.363 31.8449 216.917 32.0923C216.478 32.3398 216.128 32.7026 215.87 33.1809C215.617 33.6538 215.491 34.2255 215.491 34.8963Z" fill="#333333"/>
</svg>
