<svg width="572" height="612" viewBox="0 0 572 612" fill="none" xmlns="http://www.w3.org/2000/svg">
<path fill-rule="evenodd" clip-rule="evenodd" d="M444.43 213.979C444.735 213.067 445.378 213.629 446.068 213.669C447.043 213.727 447.676 213.012 447.786 211.958C447.847 211.363 448.058 210.65 447.256 210.487C445.831 210.198 446.544 211.58 446.126 212.11C445.522 212.873 444.716 212.676 443.977 212.864C443.545 212.974 443.448 213.436 443.595 213.844C443.717 214.178 443.999 214.23 444.43 213.979ZM404.121 551.999C409.401 547.695 414.841 543.53 417.934 537.212C413.624 542.421 409.157 547.48 404.121 551.999ZM419.853 312.503C418.348 313.955 417.718 313.345 417.81 311.555C417.943 309.002 418.364 306.469 418.605 303.923C419.223 297.423 421.022 291.113 422.667 284.805C422.957 283.692 423.103 280.928 425.772 282.741C426.314 281.781 427.861 282.719 428.277 281.301C428.831 279.41 426.882 280.531 426.787 280.016C426.447 278.162 424.664 276.52 425.242 274.709C426.127 271.944 426.804 269.135 427.592 266.352C428.518 263.08 429.688 259.877 430.65 256.615C432.446 250.507 434.255 244.399 435.887 238.246C436.718 235.117 437.638 232.015 438.492 228.899C439.386 225.637 439.461 222.162 440.128 218.827C441.851 210.205 441.809 201.467 440.511 192.919C439.133 183.844 435.275 175.462 430.301 167.669C417.323 147.339 398.835 134.558 375.633 128.552C360.974 124.757 346.092 125.37 331.253 127.709C328.72 128.108 326.227 128.833 326.35 124.456C325.583 127.301 324.208 128.09 321.625 127.458C320.019 127.066 318.507 128.948 316.66 128.414C317.012 131.746 314.256 129.503 313.196 130.318C312.972 130.491 312.567 130.432 312.348 130.606C310.643 131.965 310.096 130.959 309.761 129.052C309.738 132.32 308.3 133.738 305.318 133.566C303.918 133.484 302.321 134.694 302.188 135.3C301.758 137.282 300.164 137.608 298.904 137.998C296.434 138.762 294.405 139.873 292.201 141.34C289.135 143.382 285.56 144.861 282.632 147.276C281.013 148.611 278.569 148.697 277.338 149.849C275.608 151.471 272.938 151.844 271.824 154.147C271.761 154.281 271.239 154.345 271.041 154.238C269.959 153.649 269.778 153.597 269.575 154.845C269.409 155.867 268.796 156.406 268.088 156.513C266.143 156.805 265.036 158.88 262.827 158.704C261.98 158.637 260.898 159.273 260.45 160.323C259.011 163.706 255.802 165.276 253.003 167.073C247.849 170.377 242.797 173.849 237.628 177.13C233.301 179.876 229.005 182.821 224.491 185.123C218.131 188.369 211.376 190.797 204.233 192.318C188.082 195.755 172.237 195.376 156.73 189.69C146.969 186.11 137.482 181.773 127.271 179.503C122.535 178.451 117.676 177.301 112.89 178.106C103.428 179.698 94.9702 183.846 87.1512 189.375C86.0874 190.127 85.0571 192.192 83.0399 190.526C82.4322 190.025 82.4188 191.043 82.2482 191.412C79.9767 196.323 75.4874 199.451 71.9492 203.206C69.1414 206.186 67.0306 209.589 64.671 212.747C61.3258 217.222 59.1458 222.561 56.4529 227.524C56.4004 227.621 56.1529 227.614 56.1942 227.603C55.0891 227.096 56.9513 226.367 55.4894 225.655C55.8407 227.716 52.5846 228.978 54.8304 231.388C55.0289 231.601 54.749 233.321 53.2436 233.547C52.5657 233.648 51.2643 234.354 52.0371 235.593C52.7563 236.747 52.714 239.396 51.7717 240.103C50.4827 241.07 50.505 241.065 50.7882 242.429C50.8886 242.912 50.9945 243.467 50.8562 243.912C49.207 249.202 48.4242 254.675 47.6046 260.114C46.9991 264.138 45.6265 268.261 47.1028 272.34C48.4699 276.121 47.8522 279.982 48.0663 283.816C48.3595 289.02 47.0705 294.096 47.0805 299.295C47.0917 305.533 48.2826 311.657 48.4041 317.851C48.6495 330.326 54.0454 341.223 59.9788 351.495C64.3388 359.043 71.4909 364.888 78.5818 370.329C90.9258 379.798 103.811 388.572 115.58 398.78C126.573 408.313 137.444 417.979 147.511 428.5C157.992 439.454 168.817 450.139 177.778 462.405C190.852 480.304 204.754 497.549 219.71 513.872C234.701 530.232 252.388 543.336 271.889 554.095C298.867 568.978 327.482 573.315 357.667 568.18C368.753 566.292 379.684 563.924 389.67 558.192C415.23 543.52 428.183 520.251 434.546 492.721C438.896 473.901 437.724 454.799 435.229 435.813C434.241 428.301 434.128 420.666 432.127 413.288C430.827 408.493 430.623 403.466 428.852 398.74C428.218 397.05 429.181 394.654 428.35 393.173C426.842 390.484 426.476 387.497 425.27 384.775C424.316 382.622 425.201 380.08 424.234 378.111C422.313 374.193 422.053 369.914 420.919 365.839C418.488 357.103 418.164 348.021 416.785 339.11C416.239 335.59 416.649 332.062 416.552 328.541C416.371 322.011 417.36 318.217 419.704 313.9C419.92 313.503 419.792 312.923 419.84 312.456C420.644 313.192 421.009 314.712 422.623 313.994C424.617 313.106 422.628 312.042 422.759 311.075C422.85 310.417 423.307 309.624 422.028 309.666C421.11 309.696 420.497 309.904 420.624 311.046C420.687 311.611 420.518 312.232 419.853 312.503ZM433.601 386.394C433.913 386.637 434.502 386.886 434.498 387.125C434.411 392.16 437.392 396.361 438.281 401.114C439.289 406.5 440.47 411.844 441.665 417.192C443.436 425.12 444.789 433.099 445.558 441.241C446.326 449.357 447.357 457.468 447.488 465.609C447.748 481.541 445.865 497.189 440.866 512.461C439.256 517.381 437.212 522.124 434.977 526.658C432.61 531.463 429.466 536.048 426.752 540.698C424.35 544.814 421.152 548.111 418.314 551.688C415.332 555.449 411.24 558.402 407.395 561.404C399.336 567.696 390.441 572.451 380.43 574.91C371.478 577.111 362.498 579.192 353.255 579.755C335.386 580.841 317.698 579.635 300.492 574.511C276.202 567.277 254.541 555.067 234.579 539.557C209.995 520.456 190.993 496.297 172.407 471.82C157.367 452.011 140.583 433.938 122.459 416.933C105.285 400.819 86.045 387.406 67.4419 373.131C57.812 365.741 48.8322 357.482 42.8409 346.651C38.3783 338.586 35.8303 329.856 35.333 320.678C34.6617 308.265 34.897 295.854 37.0469 283.552C37.2108 282.61 37.0402 281.481 38.3315 281.077C38.9581 280.882 39.0429 280.198 38.7686 279.834C36.0589 276.254 37.5476 272.215 37.7416 268.461C38.2612 258.377 39.5781 248.375 42.8598 238.738C43.1464 237.896 43.1698 236.899 44.857 236.598C43.9259 243.658 41.088 250.25 41.1448 257.299C44.7198 237.685 51.2877 219.332 63.6339 202.876C61.7149 204.021 58.6261 207.963 57.0995 210.779C54.5616 215.46 51.8106 220.036 49.4612 224.808C48.0528 227.67 47.2912 230.841 46.1137 233.826C45.8349 234.534 45.8226 236.028 44.5849 235.62C43.4163 235.235 44.0173 234.005 44.3541 233.244C47.1975 226.804 49.5035 220.129 52.9447 213.951C58.9673 203.143 66.6513 193.781 76.6972 186.417C84.3801 180.785 92.5303 176.497 101.962 174.083C114.404 170.9 125.956 173.618 137.724 176.852C147.494 179.537 156.429 184.54 166.354 186.75C175.176 188.715 183.961 188.319 192.888 187.232C205.093 185.746 215.686 180.66 225.754 174.111C230.162 171.244 234.422 168.151 238.786 165.215C240.021 164.385 241.256 162.842 242.912 164.707C243.155 164.981 243.802 164.886 243.961 164.457C244.509 162.975 243.346 164.324 243.042 163.952C242.045 162.734 243.175 162.336 243.799 161.885C247.717 159.052 251.676 156.275 255.621 153.48C265.922 146.183 276.454 139.245 287.682 133.431C291.744 131.328 295.749 128.89 300.281 128.094C301.491 127.881 303.901 126.059 304.912 128.952C305.737 128.401 306.007 127.619 306.176 126.673C306.375 125.551 307.196 124.76 308.304 125.469C309.199 126.042 309.533 125.709 310.015 125.121C311.093 123.803 312.189 122.402 312.992 125.317C314.278 124.859 316.21 124.77 316.723 123.875C318.057 121.539 320.33 122.003 321.906 122.172C324.13 122.411 326.991 120.391 328.751 124.496C328.274 119.74 328.262 119.625 332.744 119.138C353.288 116.912 373.141 119.129 392.089 127.949C411.318 136.901 427.106 149.784 438.102 167.952C442.331 174.94 446.549 182.129 447.558 190.607C447.777 192.464 449.606 194.16 447.734 196.076C451.401 199.666 449.839 204.388 449.484 208.314C449.2 211.459 450.535 215.043 448.273 218C447.776 218.652 448.471 219.121 448.805 219.562C449.712 220.762 449.077 222.608 448.62 222.875C446.111 224.341 447.336 226.177 447.541 228.095C447.902 231.478 446.709 234.729 445.478 237.744C444.141 241.02 442.966 244.272 442.491 247.761C442.339 248.882 442.87 250.331 440.864 250.19C440.742 250.181 440.602 250.438 440.469 250.573C443.262 251.912 439.479 253.95 440.979 255.457C441.137 255.615 441.154 256.228 441.035 256.298C437.685 258.308 439.431 262.351 437.515 265.01C436.455 266.482 437.554 268.715 436.561 270.441C436.446 270.641 436.665 271.213 436.598 271.237C433.669 272.246 434.924 275.88 432.703 277.355C431.653 278.053 432.135 279.127 432.377 280.09C432.513 280.631 433.819 279.24 433.263 280.535C432.368 282.626 432.344 284.85 431.841 286.965C431.091 290.121 429.341 288.02 427.837 287.061C429.03 288.577 428.34 291.003 430.584 291.856C431.197 292.09 430.804 292.48 430.695 292.8C429.47 296.384 429.068 300.153 428.177 303.808C427.761 305.518 427.126 307.27 426.162 308.721C425.425 309.833 425.351 311.02 425.751 311.831C426.303 312.954 427.207 313.207 425.094 313.481C423.786 313.651 425.278 314.911 425.581 315.569C426.052 316.588 426.722 317.426 426.06 318.641C425.344 319.955 424.206 319.002 423.207 319.03C423.619 320.269 424.723 319.908 425.291 320.47C425.72 320.892 426.456 321.346 425.814 321.917C423.109 324.331 425.241 326.608 425.655 329.099C426.279 332.876 426.42 336.795 426.234 340.627C425.984 345.787 427.321 350.69 428.001 355.699C428.82 361.74 430.761 367.567 431.384 373.652C431.604 375.799 433.22 377.893 432.699 379.965C432.079 382.426 434.688 384.14 433.651 386.463C432.419 385.942 431.426 384.811 429.702 384.87C429.889 385.448 429.957 385.83 430.131 386.156C430.609 387.051 430.523 388.155 429.725 388.421C428.679 388.772 428.594 387.708 428.549 386.857C428.483 385.624 427.399 386.17 426.797 385.871C426.549 386.318 426.936 386.417 427.099 386.635C429.592 389.948 429.581 389.939 432.342 387.125C432.67 386.792 433.176 386.633 433.601 386.394Z" fill="url(#paint0_linear_10_66)"/>
<g filter="url(#filter0_d_10_66)">
<rect x="110.368" y="36" width="196.119" height="196.119" fill="#FBFBFB"/>
</g>
<g filter="url(#filter1_d_10_66)">
<path d="M572 349.696L389.277 483.103V216.289L572 349.696Z" fill="#FBFBFB"/>
</g>
<g filter="url(#filter2_d_10_66)">
<ellipse cx="146.431" cy="471.088" rx="111.431" ry="108.493" fill="#FBFBFB"/>
</g>
<path d="M73.0018 482.741L66.4633 459.165H70.2045L74.7976 477.422H75.0163L79.7936 459.165H83.5003L88.2776 477.434H88.4963L93.0779 459.165H96.8307L90.2806 482.741H86.7005L81.7391 465.082H81.5549L76.5934 482.741H73.0018ZM100.446 482.741V465.059H103.888V482.741H100.446ZM102.184 462.331C101.586 462.331 101.072 462.131 100.642 461.732C100.22 461.325 100.009 460.842 100.009 460.282C100.009 459.714 100.22 459.23 100.642 458.831C101.072 458.425 101.586 458.221 102.184 458.221C102.783 458.221 103.293 458.425 103.715 458.831C104.145 459.23 104.36 459.714 104.36 460.282C104.36 460.842 104.145 461.325 103.715 461.732C103.293 462.131 102.783 462.331 102.184 462.331ZM109.167 482.741V465.059H112.494V467.868H112.678C113 466.916 113.568 466.168 114.382 465.623C115.203 465.071 116.131 464.794 117.167 464.794C117.382 464.794 117.636 464.802 117.927 464.817C118.226 464.833 118.46 464.852 118.629 464.875V468.167C118.491 468.129 118.246 468.087 117.893 468.041C117.54 467.987 117.187 467.96 116.834 467.96C116.02 467.96 115.295 468.133 114.658 468.478C114.029 468.816 113.53 469.288 113.161 469.894C112.793 470.492 112.609 471.175 112.609 471.943V482.741H109.167ZM129.244 483.098C127.502 483.098 126.001 482.725 124.743 481.981C123.492 481.229 122.525 480.174 121.842 478.815C121.167 477.449 120.829 475.849 120.829 474.015C120.829 472.204 121.167 470.608 121.842 469.226C122.525 467.845 123.476 466.767 124.697 465.991C125.925 465.216 127.36 464.829 129.002 464.829C130 464.829 130.967 464.994 131.903 465.324C132.839 465.654 133.68 466.172 134.424 466.878C135.168 467.584 135.755 468.501 136.185 469.629C136.615 470.75 136.83 472.112 136.83 473.716V474.936H122.774V472.357H133.457C133.457 471.452 133.273 470.65 132.904 469.951C132.536 469.245 132.018 468.689 131.35 468.282C130.69 467.876 129.915 467.672 129.025 467.672C128.058 467.672 127.214 467.91 126.493 468.386C125.779 468.854 125.226 469.468 124.835 470.228C124.451 470.98 124.259 471.797 124.259 472.68V474.694C124.259 475.876 124.466 476.881 124.881 477.71C125.303 478.539 125.89 479.172 126.642 479.61C127.394 480.039 128.273 480.254 129.278 480.254C129.931 480.254 130.525 480.162 131.063 479.978C131.6 479.786 132.064 479.502 132.455 479.126C132.847 478.75 133.146 478.286 133.353 477.733L136.611 478.32C136.35 479.28 135.882 480.12 135.207 480.841C134.539 481.555 133.699 482.111 132.686 482.51C131.68 482.902 130.533 483.098 129.244 483.098ZM149.712 465.059V467.822H139.72V465.059H149.712ZM142.46 482.741V463.01C142.46 461.905 142.702 460.988 143.185 460.259C143.668 459.522 144.309 458.973 145.107 458.613C145.906 458.244 146.773 458.06 147.709 458.06C148.4 458.06 148.991 458.118 149.482 458.233C149.973 458.34 150.338 458.44 150.575 458.532L149.77 461.318C149.608 461.272 149.401 461.218 149.148 461.157C148.895 461.088 148.588 461.053 148.227 461.053C147.391 461.053 146.792 461.26 146.431 461.675C146.078 462.089 145.902 462.688 145.902 463.47V482.741H142.46ZM153.912 482.741V465.059H157.239V467.868H157.423C157.745 466.916 158.313 466.168 159.126 465.623C159.948 465.071 160.876 464.794 161.912 464.794C162.127 464.794 162.38 464.802 162.672 464.817C162.971 464.833 163.205 464.852 163.374 464.875V468.167C163.236 468.129 162.99 468.087 162.637 468.041C162.284 467.987 161.931 467.96 161.578 467.96C160.765 467.96 160.04 468.133 159.403 468.478C158.773 468.816 158.275 469.288 157.906 469.894C157.538 470.492 157.354 471.175 157.354 471.943V482.741H153.912ZM171.988 483.132C170.868 483.132 169.855 482.925 168.949 482.51C168.044 482.088 167.326 481.478 166.797 480.68C166.275 479.882 166.014 478.904 166.014 477.745C166.014 476.747 166.206 475.926 166.59 475.281C166.973 474.637 167.491 474.126 168.144 473.75C168.796 473.374 169.525 473.09 170.331 472.898C171.137 472.707 171.958 472.561 172.794 472.461C173.853 472.338 174.713 472.238 175.373 472.162C176.033 472.077 176.512 471.943 176.812 471.759C177.111 471.575 177.261 471.275 177.261 470.861V470.78C177.261 469.775 176.977 468.996 176.409 468.443C175.849 467.891 175.012 467.615 173.899 467.615C172.741 467.615 171.827 467.872 171.16 468.386C170.5 468.892 170.043 469.456 169.79 470.078L166.555 469.341C166.939 468.267 167.499 467.4 168.236 466.74C168.98 466.072 169.836 465.589 170.803 465.289C171.77 464.982 172.787 464.829 173.853 464.829C174.559 464.829 175.308 464.913 176.098 465.082C176.896 465.243 177.641 465.543 178.331 465.98C179.03 466.417 179.601 467.043 180.047 467.856C180.492 468.662 180.714 469.71 180.714 470.999V482.741H177.353V480.323H177.215C176.992 480.768 176.658 481.206 176.213 481.636C175.768 482.065 175.196 482.422 174.498 482.706C173.8 482.99 172.963 483.132 171.988 483.132ZM172.737 480.369C173.688 480.369 174.502 480.181 175.177 479.805C175.86 479.429 176.378 478.938 176.731 478.332C177.092 477.718 177.272 477.062 177.272 476.363V474.084C177.149 474.207 176.912 474.322 176.559 474.429C176.213 474.529 175.818 474.617 175.373 474.694C174.928 474.763 174.494 474.828 174.072 474.89C173.65 474.944 173.297 474.99 173.013 475.028C172.345 475.112 171.735 475.254 171.183 475.454C170.638 475.653 170.2 475.941 169.87 476.317C169.548 476.686 169.387 477.177 169.387 477.791C169.387 478.643 169.701 479.287 170.331 479.725C170.96 480.154 171.762 480.369 172.737 480.369ZM185.947 482.741V465.059H189.251V467.937H189.469C189.838 466.962 190.44 466.203 191.277 465.658C192.113 465.105 193.115 464.829 194.281 464.829C195.463 464.829 196.453 465.105 197.251 465.658C198.057 466.21 198.652 466.97 199.036 467.937H199.22C199.642 466.993 200.313 466.241 201.234 465.681C202.155 465.113 203.253 464.829 204.527 464.829C206.13 464.829 207.439 465.331 208.452 466.337C209.473 467.342 209.983 468.858 209.983 470.884V482.741H206.541V471.206C206.541 470.009 206.215 469.142 205.563 468.605C204.91 468.067 204.131 467.799 203.226 467.799C202.105 467.799 201.234 468.144 200.613 468.835C199.991 469.518 199.68 470.397 199.68 471.471V482.741H196.25V470.987C196.25 470.028 195.95 469.257 195.352 468.674C194.753 468.09 193.974 467.799 193.015 467.799C192.363 467.799 191.76 467.971 191.208 468.317C190.663 468.654 190.222 469.126 189.884 469.733C189.554 470.339 189.389 471.041 189.389 471.839V482.741H185.947ZM222.865 483.098C221.123 483.098 219.623 482.725 218.364 481.981C217.113 481.229 216.146 480.174 215.463 478.815C214.788 477.449 214.45 475.849 214.45 474.015C214.45 472.204 214.788 470.608 215.463 469.226C216.146 467.845 217.098 466.767 218.318 465.991C219.546 465.216 220.981 464.829 222.623 464.829C223.621 464.829 224.588 464.994 225.524 465.324C226.461 465.654 227.301 466.172 228.045 466.878C228.79 467.584 229.377 468.501 229.807 469.629C230.236 470.75 230.451 472.112 230.451 473.716V474.936H216.396V472.357H227.078C227.078 471.452 226.894 470.65 226.526 469.951C226.158 469.245 225.639 468.689 224.972 468.282C224.312 467.876 223.537 467.672 222.646 467.672C221.68 467.672 220.835 467.91 220.114 468.386C219.4 468.854 218.848 469.468 218.456 470.228C218.073 470.98 217.881 471.797 217.881 472.68V474.694C217.881 475.876 218.088 476.881 218.502 477.71C218.924 478.539 219.512 479.172 220.264 479.61C221.016 480.039 221.894 480.254 222.9 480.254C223.552 480.254 224.147 480.162 224.684 479.978C225.221 479.786 225.686 479.502 226.077 479.126C226.468 478.75 226.768 478.286 226.975 477.733L230.233 478.32C229.972 479.28 229.504 480.12 228.828 480.841C228.161 481.555 227.32 482.111 226.307 482.51C225.302 482.902 224.155 483.098 222.865 483.098Z" fill="#42405B"/>
<path d="M150.558 133.454L144.02 109.878H147.761L152.354 128.135H152.573L157.35 109.878H161.057L165.834 128.147H166.053L170.634 109.878H174.387L167.837 133.454H164.257L159.295 115.795H159.111L154.15 133.454H150.558ZM183.882 133.811C182.14 133.811 180.64 133.438 179.381 132.694C178.13 131.942 177.163 130.887 176.48 129.528C175.805 128.162 175.467 126.562 175.467 124.728C175.467 122.917 175.805 121.321 176.48 119.939C177.163 118.558 178.115 117.48 179.335 116.704C180.563 115.929 181.998 115.542 183.64 115.542C184.638 115.542 185.605 115.707 186.541 116.037C187.477 116.367 188.318 116.885 189.062 117.591C189.807 118.297 190.394 119.214 190.823 120.342C191.253 121.463 191.468 122.825 191.468 124.429V125.649H177.412V123.07H188.095C188.095 122.165 187.911 121.363 187.543 120.664C187.174 119.958 186.656 119.402 185.989 118.995C185.329 118.588 184.553 118.385 183.663 118.385C182.696 118.385 181.852 118.623 181.131 119.099C180.417 119.567 179.864 120.181 179.473 120.941C179.089 121.693 178.897 122.51 178.897 123.393V125.407C178.897 126.589 179.105 127.594 179.519 128.423C179.941 129.252 180.528 129.885 181.28 130.323C182.032 130.752 182.911 130.967 183.916 130.967C184.569 130.967 185.164 130.875 185.701 130.691C186.238 130.499 186.702 130.215 187.094 129.839C187.485 129.463 187.784 128.999 187.992 128.446L191.249 129.033C190.988 129.993 190.52 130.833 189.845 131.554C189.177 132.268 188.337 132.824 187.324 133.223C186.319 133.615 185.171 133.811 183.882 133.811ZM196.212 133.454V109.878H199.654V118.638H199.861C200.06 118.27 200.348 117.844 200.724 117.361C201.1 116.877 201.622 116.455 202.29 116.094C202.957 115.726 203.84 115.542 204.937 115.542C206.365 115.542 207.639 115.902 208.759 116.624C209.88 117.345 210.758 118.385 211.395 119.743C212.04 121.102 212.362 122.736 212.362 124.647C212.362 126.558 212.044 128.197 211.407 129.563C210.77 130.921 209.895 131.969 208.782 132.705C207.669 133.434 206.399 133.799 204.972 133.799C203.897 133.799 203.019 133.619 202.336 133.258C201.66 132.897 201.131 132.475 200.747 131.992C200.363 131.508 200.068 131.078 199.861 130.702H199.573V133.454H196.212ZM199.584 124.613C199.584 125.856 199.765 126.946 200.125 127.882C200.486 128.818 201.008 129.551 201.691 130.081C202.374 130.603 203.211 130.864 204.201 130.864C205.229 130.864 206.088 130.591 206.779 130.046C207.47 129.494 207.992 128.745 208.345 127.802C208.705 126.858 208.886 125.795 208.886 124.613C208.886 123.446 208.709 122.399 208.356 121.47C208.011 120.542 207.489 119.809 206.791 119.271C206.1 118.734 205.237 118.466 204.201 118.466C203.203 118.466 202.359 118.723 201.668 119.237C200.985 119.751 200.467 120.469 200.114 121.39C199.761 122.311 199.584 123.385 199.584 124.613ZM230.125 120.089L227.006 120.641C226.875 120.242 226.668 119.862 226.384 119.502C226.108 119.141 225.732 118.846 225.256 118.615C224.78 118.385 224.185 118.27 223.472 118.27C222.497 118.27 221.684 118.489 221.031 118.926C220.379 119.356 220.053 119.912 220.053 120.595C220.053 121.186 220.271 121.662 220.709 122.023C221.146 122.383 221.852 122.679 222.827 122.909L225.636 123.554C227.263 123.93 228.475 124.509 229.273 125.292C230.072 126.075 230.471 127.092 230.471 128.343C230.471 129.402 230.164 130.346 229.55 131.174C228.943 131.996 228.095 132.64 227.006 133.108C225.924 133.576 224.669 133.811 223.241 133.811C221.261 133.811 219.646 133.388 218.395 132.544C217.144 131.692 216.377 130.484 216.093 128.918L219.42 128.412C219.627 129.279 220.053 129.935 220.697 130.38C221.342 130.818 222.182 131.036 223.218 131.036C224.347 131.036 225.248 130.802 225.924 130.334C226.599 129.858 226.937 129.279 226.937 128.596C226.937 128.043 226.729 127.579 226.315 127.203C225.908 126.827 225.283 126.543 224.439 126.351L221.446 125.695C219.796 125.319 218.575 124.72 217.785 123.899C217.002 123.078 216.611 122.038 216.611 120.779C216.611 119.736 216.902 118.823 217.486 118.04C218.069 117.257 218.875 116.647 219.903 116.209C220.931 115.764 222.109 115.542 223.437 115.542C225.348 115.542 226.852 115.956 227.95 116.785C229.047 117.606 229.772 118.707 230.125 120.089ZM234.903 133.454V115.772H238.345V133.454H234.903ZM236.642 113.044C236.043 113.044 235.529 112.844 235.099 112.445C234.677 112.038 234.466 111.555 234.466 110.995C234.466 110.427 234.677 109.943 235.099 109.544C235.529 109.138 236.043 108.934 236.642 108.934C237.24 108.934 237.751 109.138 238.173 109.544C238.602 109.943 238.817 110.427 238.817 110.995C238.817 111.555 238.602 112.038 238.173 112.445C237.751 112.844 237.24 113.044 236.642 113.044ZM251.878 115.772V118.535H242.22V115.772H251.878ZM244.81 111.536H248.252V128.262C248.252 128.93 248.352 129.432 248.551 129.77C248.751 130.1 249.008 130.326 249.322 130.449C249.645 130.564 249.994 130.622 250.37 130.622C250.646 130.622 250.888 130.603 251.095 130.564C251.302 130.526 251.464 130.495 251.579 130.472L252.2 133.316C252.001 133.392 251.717 133.469 251.348 133.546C250.98 133.63 250.52 133.676 249.967 133.684C249.061 133.699 248.217 133.538 247.434 133.2C246.652 132.863 246.019 132.341 245.535 131.635C245.052 130.929 244.81 130.042 244.81 128.976V111.536ZM263.764 133.811C262.022 133.811 260.522 133.438 259.263 132.694C258.012 131.942 257.046 130.887 256.362 129.528C255.687 128.162 255.349 126.562 255.349 124.728C255.349 122.917 255.687 121.321 256.362 119.939C257.046 118.558 257.997 117.48 259.217 116.704C260.445 115.929 261.88 115.542 263.523 115.542C264.52 115.542 265.487 115.707 266.424 116.037C267.36 116.367 268.2 116.885 268.945 117.591C269.689 118.297 270.276 119.214 270.706 120.342C271.136 121.463 271.35 122.825 271.35 124.429V125.649H257.295V123.07H267.978C267.978 122.165 267.793 121.363 267.425 120.664C267.057 119.958 266.539 119.402 265.871 118.995C265.211 118.588 264.436 118.385 263.546 118.385C262.579 118.385 261.735 118.623 261.013 119.099C260.299 119.567 259.747 120.181 259.355 120.941C258.972 121.693 258.78 122.51 258.78 123.393V125.407C258.78 126.589 258.987 127.594 259.402 128.423C259.824 129.252 260.411 129.885 261.163 130.323C261.915 130.752 262.794 130.967 263.799 130.967C264.451 130.967 265.046 130.875 265.583 130.691C266.12 130.499 266.585 130.215 266.976 129.839C267.368 129.463 267.667 128.999 267.874 128.446L271.132 129.033C270.871 129.993 270.403 130.833 269.727 131.554C269.06 132.268 268.219 132.824 267.206 133.223C266.201 133.615 265.054 133.811 263.764 133.811ZM163.403 172.454H155.771V148.878H163.645C165.955 148.878 167.938 149.35 169.596 150.294C171.254 151.23 172.524 152.577 173.406 154.335C174.297 156.084 174.742 158.183 174.742 160.631C174.742 163.087 174.293 165.198 173.395 166.963C172.505 168.728 171.215 170.086 169.527 171.038C167.839 171.982 165.797 172.454 163.403 172.454ZM159.328 169.346H163.207C165.003 169.346 166.496 169.008 167.685 168.333C168.875 167.65 169.765 166.663 170.356 165.374C170.947 164.077 171.242 162.496 171.242 160.631C171.242 158.782 170.947 157.212 170.356 155.923C169.773 154.634 168.902 153.655 167.743 152.988C166.584 152.32 165.145 151.986 163.426 151.986H159.328V169.346ZM187.158 172.811C185.416 172.811 183.915 172.438 182.657 171.694C181.406 170.942 180.439 169.887 179.756 168.528C179.081 167.162 178.743 165.562 178.743 163.728C178.743 161.917 179.081 160.321 179.756 158.939C180.439 157.558 181.39 156.48 182.611 155.704C183.839 154.929 185.274 154.542 186.916 154.542C187.914 154.542 188.881 154.707 189.817 155.037C190.753 155.367 191.594 155.885 192.338 156.591C193.082 157.297 193.669 158.214 194.099 159.342C194.529 160.463 194.744 161.825 194.744 163.429V164.649H180.688V162.07H191.371C191.371 161.165 191.187 160.363 190.818 159.664C190.45 158.958 189.932 158.402 189.264 157.995C188.604 157.588 187.829 157.385 186.939 157.385C185.972 157.385 185.128 157.623 184.407 158.099C183.693 158.567 183.14 159.181 182.749 159.941C182.365 160.693 182.173 161.51 182.173 162.393V164.407C182.173 165.589 182.38 166.594 182.795 167.423C183.217 168.252 183.804 168.885 184.556 169.323C185.308 169.752 186.187 169.967 187.192 169.967C187.845 169.967 188.439 169.875 188.977 169.691C189.514 169.499 189.978 169.215 190.369 168.839C190.761 168.463 191.06 167.999 191.267 167.446L194.525 168.033C194.264 168.993 193.796 169.833 193.121 170.554C192.453 171.268 191.613 171.824 190.6 172.223C189.594 172.615 188.447 172.811 187.158 172.811ZM212.461 159.089L209.341 159.641C209.211 159.242 209.004 158.862 208.72 158.502C208.443 158.141 208.067 157.846 207.592 157.615C207.116 157.385 206.521 157.27 205.807 157.27C204.833 157.27 204.019 157.489 203.367 157.926C202.714 158.356 202.388 158.912 202.388 159.595C202.388 160.186 202.607 160.662 203.044 161.023C203.482 161.383 204.188 161.679 205.163 161.909L207.971 162.554C209.598 162.93 210.811 163.509 211.609 164.292C212.407 165.075 212.806 166.092 212.806 167.343C212.806 168.402 212.499 169.346 211.885 170.174C211.279 170.996 210.431 171.64 209.341 172.108C208.259 172.576 207.004 172.811 205.577 172.811C203.597 172.811 201.982 172.388 200.731 171.544C199.48 170.692 198.712 169.484 198.428 167.918L201.755 167.412C201.962 168.279 202.388 168.935 203.033 169.38C203.678 169.818 204.518 170.036 205.554 170.036C206.682 170.036 207.584 169.802 208.259 169.334C208.935 168.858 209.272 168.279 209.272 167.596C209.272 167.043 209.065 166.579 208.651 166.203C208.244 165.827 207.618 165.543 206.774 165.351L203.781 164.695C202.131 164.319 200.911 163.72 200.121 162.899C199.338 162.078 198.946 161.038 198.946 159.779C198.946 158.736 199.238 157.823 199.821 157.04C200.404 156.257 201.21 155.647 202.239 155.209C203.267 154.764 204.445 154.542 205.773 154.542C207.684 154.542 209.188 154.956 210.285 155.785C211.383 156.606 212.108 157.707 212.461 159.089ZM217.239 172.454V154.772H220.681V172.454H217.239ZM218.977 152.044C218.379 152.044 217.864 151.844 217.435 151.445C217.013 151.038 216.802 150.555 216.802 149.995C216.802 149.427 217.013 148.943 217.435 148.544C217.864 148.138 218.379 147.934 218.977 147.934C219.576 147.934 220.086 148.138 220.508 148.544C220.938 148.943 221.153 149.427 221.153 149.995C221.153 150.555 220.938 151.038 220.508 151.445C220.086 151.844 219.576 152.044 218.977 152.044ZM233.373 179.453C231.969 179.453 230.76 179.268 229.747 178.9C228.742 178.532 227.921 178.044 227.284 177.438C226.647 176.832 226.171 176.168 225.856 175.447L228.815 174.226C229.022 174.564 229.298 174.921 229.643 175.297C229.996 175.681 230.472 176.007 231.071 176.275C231.677 176.544 232.456 176.678 233.408 176.678C234.712 176.678 235.791 176.36 236.642 175.723C237.494 175.094 237.92 174.088 237.92 172.707V169.23H237.702C237.494 169.606 237.195 170.025 236.804 170.485C236.42 170.946 235.89 171.345 235.215 171.682C234.54 172.02 233.661 172.189 232.579 172.189C231.182 172.189 229.924 171.863 228.803 171.21C227.69 170.55 226.808 169.58 226.155 168.298C225.511 167.009 225.188 165.424 225.188 163.544C225.188 161.664 225.507 160.052 226.144 158.709C226.789 157.366 227.671 156.338 228.792 155.624C229.912 154.902 231.182 154.542 232.602 154.542C233.699 154.542 234.586 154.726 235.261 155.094C235.936 155.455 236.462 155.877 236.838 156.361C237.222 156.844 237.517 157.27 237.725 157.638H237.978V154.772H241.351V172.845C241.351 174.365 240.998 175.612 240.292 176.586C239.586 177.561 238.63 178.282 237.425 178.75C236.228 179.219 234.877 179.453 233.373 179.453ZM233.339 169.334C234.329 169.334 235.165 169.104 235.848 168.643C236.539 168.175 237.061 167.508 237.414 166.64C237.774 165.765 237.955 164.718 237.955 163.498C237.955 162.308 237.778 161.261 237.425 160.355C237.072 159.449 236.554 158.743 235.871 158.237C235.188 157.723 234.344 157.466 233.339 157.466C232.303 157.466 231.439 157.734 230.749 158.271C230.058 158.801 229.536 159.522 229.183 160.436C228.838 161.349 228.665 162.37 228.665 163.498C228.665 164.657 228.841 165.673 229.194 166.548C229.548 167.423 230.069 168.106 230.76 168.597C231.458 169.088 232.318 169.334 233.339 169.334ZM250.057 161.955V172.454H246.615V154.772H249.919V157.65H250.138C250.544 156.714 251.181 155.962 252.049 155.394C252.923 154.826 254.025 154.542 255.352 154.542C256.557 154.542 257.612 154.795 258.518 155.302C259.424 155.8 260.126 156.545 260.625 157.535C261.123 158.525 261.373 159.749 261.373 161.207V172.454H257.931V161.621C257.931 160.34 257.597 159.338 256.929 158.617C256.262 157.888 255.345 157.523 254.178 157.523C253.38 157.523 252.67 157.696 252.049 158.041C251.435 158.387 250.947 158.893 250.587 159.561C250.234 160.221 250.057 161.019 250.057 161.955Z" fill="#42405B"/>
<path d="M406.981 341.729V318.154H415.615C417.288 318.154 418.673 318.43 419.77 318.982C420.868 319.527 421.689 320.268 422.234 321.204C422.779 322.133 423.051 323.18 423.051 324.347C423.051 325.329 422.871 326.158 422.51 326.833C422.149 327.501 421.666 328.038 421.06 328.445C420.461 328.844 419.801 329.136 419.08 329.32V329.55C419.862 329.588 420.626 329.842 421.37 330.31C422.123 330.77 422.744 331.426 423.235 332.278C423.727 333.13 423.972 334.166 423.972 335.386C423.972 336.591 423.688 337.673 423.12 338.633C422.56 339.584 421.693 340.34 420.519 340.9C419.344 341.453 417.844 341.729 416.018 341.729H406.981ZM410.538 338.679H415.672C417.376 338.679 418.596 338.349 419.333 337.689C420.07 337.029 420.438 336.204 420.438 335.214C420.438 334.469 420.25 333.786 419.874 333.165C419.498 332.543 418.961 332.048 418.262 331.68C417.572 331.311 416.751 331.127 415.799 331.127H410.538V338.679ZM410.538 328.353H415.304C416.102 328.353 416.82 328.199 417.457 327.892C418.101 327.585 418.612 327.156 418.988 326.603C419.371 326.043 419.563 325.383 419.563 324.623C419.563 323.648 419.222 322.831 418.539 322.171C417.856 321.511 416.808 321.181 415.396 321.181H410.538V328.353ZM433.709 342.121C432.588 342.121 431.575 341.913 430.67 341.499C429.764 341.077 429.047 340.467 428.517 339.669C427.995 338.871 427.734 337.892 427.734 336.733C427.734 335.736 427.926 334.914 428.31 334.27C428.694 333.625 429.212 333.115 429.864 332.739C430.516 332.363 431.245 332.079 432.051 331.887C432.857 331.695 433.678 331.549 434.515 331.449C435.574 331.327 436.433 331.227 437.093 331.15C437.753 331.066 438.233 330.931 438.532 330.747C438.831 330.563 438.981 330.264 438.981 329.849V329.769C438.981 328.763 438.697 327.984 438.129 327.432C437.569 326.879 436.732 326.603 435.62 326.603C434.461 326.603 433.548 326.86 432.88 327.374C432.22 327.881 431.763 328.445 431.51 329.067L428.275 328.33C428.659 327.255 429.219 326.388 429.956 325.728C430.7 325.061 431.556 324.577 432.523 324.278C433.49 323.971 434.507 323.817 435.574 323.817C436.28 323.817 437.028 323.902 437.818 324.071C438.616 324.232 439.361 324.531 440.052 324.968C440.75 325.406 441.322 326.031 441.767 326.845C442.212 327.651 442.434 328.698 442.434 329.987V341.729H439.073V339.312H438.935C438.712 339.757 438.379 340.194 437.933 340.624C437.488 341.054 436.917 341.411 436.218 341.695C435.52 341.979 434.683 342.121 433.709 342.121ZM434.457 339.358C435.409 339.358 436.222 339.17 436.897 338.794C437.58 338.418 438.098 337.927 438.452 337.32C438.812 336.706 438.993 336.05 438.993 335.352V333.073C438.87 333.195 438.632 333.31 438.279 333.418C437.933 333.518 437.538 333.606 437.093 333.683C436.648 333.752 436.214 333.817 435.792 333.878C435.37 333.932 435.017 333.978 434.733 334.017C434.066 334.101 433.456 334.243 432.903 334.442C432.358 334.642 431.921 334.93 431.591 335.306C431.268 335.674 431.107 336.165 431.107 336.779C431.107 337.631 431.422 338.276 432.051 338.713C432.68 339.143 433.482 339.358 434.457 339.358ZM451.109 331.231V341.729H447.667V324.048H450.971V326.925H451.19C451.597 325.989 452.234 325.237 453.101 324.669C453.976 324.101 455.077 323.817 456.405 323.817C457.609 323.817 458.665 324.071 459.57 324.577C460.476 325.076 461.178 325.82 461.677 326.81C462.176 327.8 462.425 329.024 462.425 330.482V341.729H458.983V330.897C458.983 329.615 458.649 328.614 457.982 327.892C457.314 327.163 456.397 326.799 455.23 326.799C454.432 326.799 453.722 326.971 453.101 327.317C452.487 327.662 451.999 328.169 451.639 328.836C451.286 329.496 451.109 330.294 451.109 331.231ZM471.131 331.231V341.729H467.689V324.048H470.993V326.925H471.212C471.619 325.989 472.256 325.237 473.123 324.669C473.998 324.101 475.099 323.817 476.427 323.817C477.632 323.817 478.687 324.071 479.592 324.577C480.498 325.076 481.2 325.82 481.699 326.81C482.198 327.8 482.447 329.024 482.447 330.482V341.729H479.005V330.897C479.005 329.615 478.671 328.614 478.004 327.892C477.336 327.163 476.419 326.799 475.253 326.799C474.454 326.799 473.745 326.971 473.123 327.317C472.509 327.662 472.022 328.169 471.661 328.836C471.308 329.496 471.131 330.294 471.131 331.231ZM495.332 342.086C493.59 342.086 492.09 341.714 490.831 340.969C489.58 340.217 488.613 339.162 487.93 337.804C487.255 336.438 486.917 334.838 486.917 333.004C486.917 331.192 487.255 329.596 487.93 328.215C488.613 326.833 489.565 325.755 490.785 324.98C492.013 324.205 493.448 323.817 495.091 323.817C496.088 323.817 497.055 323.982 497.991 324.312C498.928 324.642 499.768 325.16 500.513 325.866C501.257 326.572 501.844 327.489 502.274 328.618C502.704 329.738 502.918 331.1 502.918 332.704V333.924H488.863V331.346H499.546C499.546 330.44 499.361 329.638 498.993 328.94C498.625 328.234 498.107 327.678 497.439 327.271C496.779 326.864 496.004 326.661 495.114 326.661C494.147 326.661 493.302 326.899 492.581 327.374C491.867 327.843 491.315 328.456 490.923 329.216C490.54 329.968 490.348 330.786 490.348 331.668V333.683C490.348 334.865 490.555 335.87 490.969 336.699C491.392 337.528 491.979 338.161 492.731 338.598C493.483 339.028 494.362 339.243 495.367 339.243C496.019 339.243 496.614 339.151 497.151 338.966C497.688 338.775 498.153 338.491 498.544 338.115C498.935 337.739 499.235 337.274 499.442 336.722L502.7 337.309C502.439 338.268 501.971 339.108 501.295 339.83C500.628 340.544 499.787 341.1 498.774 341.499C497.769 341.89 496.622 342.086 495.332 342.086ZM507.386 341.729V324.048H510.713V326.856H510.897C511.219 325.905 511.787 325.156 512.6 324.612C513.422 324.059 514.35 323.783 515.386 323.783C515.601 323.783 515.854 323.79 516.146 323.806C516.445 323.821 516.679 323.84 516.848 323.863V327.156C516.71 327.117 516.464 327.075 516.111 327.029C515.758 326.975 515.405 326.948 515.052 326.948C514.239 326.948 513.514 327.121 512.877 327.466C512.247 327.804 511.749 328.276 511.38 328.882C511.012 329.481 510.828 330.164 510.828 330.931V341.729H507.386ZM416.251 380.729H408.619V357.154H416.493C418.803 357.154 420.787 357.626 422.444 358.57C424.102 359.506 425.372 360.853 426.255 362.61C427.145 364.36 427.59 366.459 427.59 368.907C427.59 371.363 427.141 373.473 426.243 375.238C425.353 377.003 424.064 378.362 422.375 379.313C420.687 380.257 418.646 380.729 416.251 380.729ZM412.176 377.621H416.055C417.851 377.621 419.344 377.283 420.533 376.608C421.723 375.925 422.613 374.939 423.204 373.65C423.795 372.353 424.09 370.772 424.09 368.907C424.09 367.057 423.795 365.488 423.204 364.199C422.621 362.909 421.75 361.931 420.591 361.263C419.432 360.596 417.993 360.262 416.274 360.262H412.176V377.621ZM440.006 381.086C438.264 381.086 436.764 380.714 435.505 379.969C434.254 379.217 433.287 378.162 432.604 376.804C431.929 375.438 431.591 373.838 431.591 372.004C431.591 370.192 431.929 368.596 432.604 367.215C433.287 365.833 434.239 364.755 435.459 363.98C436.687 363.205 438.122 362.817 439.764 362.817C440.762 362.817 441.729 362.982 442.665 363.312C443.601 363.642 444.442 364.16 445.186 364.866C445.931 365.572 446.518 366.489 446.947 367.618C447.377 368.738 447.592 370.1 447.592 371.704V372.924H433.536V370.346H444.219C444.219 369.44 444.035 368.638 443.667 367.94C443.298 367.234 442.78 366.678 442.113 366.271C441.453 365.864 440.677 365.661 439.787 365.661C438.82 365.661 437.976 365.899 437.255 366.374C436.541 366.843 435.988 367.456 435.597 368.216C435.213 368.968 435.021 369.786 435.021 370.668V372.683C435.021 373.865 435.229 374.87 435.643 375.699C436.065 376.528 436.652 377.161 437.404 377.598C438.156 378.028 439.035 378.243 440.04 378.243C440.693 378.243 441.288 378.151 441.825 377.966C442.362 377.775 442.826 377.491 443.218 377.115C443.609 376.739 443.908 376.274 444.116 375.722L447.373 376.309C447.112 377.268 446.644 378.108 445.969 378.83C445.301 379.544 444.461 380.1 443.448 380.499C442.443 380.89 441.295 381.086 440.006 381.086ZM465.309 367.364L462.189 367.917C462.059 367.518 461.852 367.138 461.568 366.777C461.292 366.417 460.916 366.121 460.44 365.891C459.964 365.661 459.369 365.546 458.655 365.546C457.681 365.546 456.867 365.764 456.215 366.202C455.563 366.631 455.236 367.188 455.236 367.871C455.236 368.462 455.455 368.938 455.893 369.298C456.33 369.659 457.036 369.954 458.011 370.185L460.82 370.829C462.447 371.205 463.659 371.785 464.457 372.568C465.255 373.35 465.654 374.367 465.654 375.618C465.654 376.677 465.347 377.621 464.733 378.45C464.127 379.271 463.279 379.916 462.189 380.384C461.107 380.852 459.853 381.086 458.425 381.086C456.445 381.086 454.83 380.664 453.579 379.82C452.328 378.968 451.56 377.759 451.277 376.194L454.603 375.687C454.811 376.554 455.236 377.211 455.881 377.656C456.526 378.093 457.366 378.312 458.402 378.312C459.53 378.312 460.432 378.078 461.107 377.61C461.783 377.134 462.12 376.554 462.12 375.871C462.12 375.319 461.913 374.855 461.499 374.478C461.092 374.102 460.467 373.818 459.622 373.627L456.629 372.97C454.979 372.594 453.759 371.996 452.969 371.175C452.186 370.354 451.795 369.314 451.795 368.055C451.795 367.011 452.086 366.098 452.669 365.315C453.253 364.533 454.058 363.922 455.087 363.485C456.115 363.04 457.293 362.817 458.621 362.817C460.532 362.817 462.036 363.232 463.133 364.061C464.231 364.882 464.956 365.983 465.309 367.364ZM470.087 380.729V363.048H473.529V380.729H470.087ZM471.825 360.319C471.227 360.319 470.713 360.12 470.283 359.721C469.861 359.314 469.65 358.831 469.65 358.27C469.65 357.702 469.861 357.219 470.283 356.82C470.713 356.413 471.227 356.21 471.825 356.21C472.424 356.21 472.934 356.413 473.356 356.82C473.786 357.219 474.001 357.702 474.001 358.27C474.001 358.831 473.786 359.314 473.356 359.721C472.934 360.12 472.424 360.319 471.825 360.319ZM486.221 387.728C484.817 387.728 483.608 387.544 482.595 387.176C481.59 386.807 480.769 386.32 480.132 385.714C479.495 385.107 479.019 384.444 478.704 383.722L481.663 382.502C481.87 382.84 482.146 383.197 482.492 383.573C482.845 383.956 483.32 384.282 483.919 384.551C484.525 384.82 485.304 384.954 486.256 384.954C487.561 384.954 488.639 384.635 489.491 383.999C490.342 383.369 490.768 382.364 490.768 380.983V377.506H490.55C490.342 377.882 490.043 378.3 489.652 378.761C489.268 379.221 488.739 379.62 488.063 379.958C487.388 380.296 486.509 380.464 485.427 380.464C484.03 380.464 482.772 380.138 481.651 379.486C480.539 378.826 479.656 377.855 479.004 376.574C478.359 375.284 478.037 373.7 478.037 371.819C478.037 369.939 478.355 368.328 478.992 366.984C479.637 365.641 480.519 364.613 481.64 363.899C482.76 363.178 484.03 362.817 485.45 362.817C486.548 362.817 487.434 363.002 488.109 363.37C488.785 363.731 489.31 364.153 489.686 364.636C490.07 365.12 490.366 365.546 490.573 365.914H490.826V363.048H494.199V381.121C494.199 382.64 493.846 383.887 493.14 384.862C492.434 385.837 491.478 386.558 490.273 387.026C489.076 387.494 487.726 387.728 486.221 387.728ZM486.187 377.61C487.177 377.61 488.013 377.379 488.696 376.919C489.387 376.451 489.909 375.783 490.262 374.916C490.623 374.041 490.803 372.994 490.803 371.773C490.803 370.584 490.626 369.536 490.273 368.631C489.92 367.725 489.402 367.019 488.719 366.513C488.036 365.998 487.192 365.741 486.187 365.741C485.151 365.741 484.287 366.01 483.597 366.547C482.906 367.077 482.384 367.798 482.031 368.711C481.686 369.624 481.513 370.645 481.513 371.773C481.513 372.932 481.69 373.949 482.043 374.824C482.396 375.699 482.918 376.382 483.608 376.873C484.307 377.364 485.166 377.61 486.187 377.61ZM502.905 370.231V380.729H499.463V363.048H502.767V365.925H502.986C503.393 364.989 504.03 364.237 504.897 363.669C505.772 363.101 506.873 362.817 508.201 362.817C509.405 362.817 510.461 363.071 511.366 363.577C512.272 364.076 512.974 364.82 513.473 365.81C513.972 366.8 514.221 368.024 514.221 369.482V380.729H510.779V369.897C510.779 368.615 510.445 367.614 509.778 366.892C509.11 366.163 508.193 365.799 507.026 365.799C506.228 365.799 505.518 365.971 504.897 366.317C504.283 366.662 503.795 367.169 503.435 367.836C503.082 368.496 502.905 369.294 502.905 370.231Z" fill="#42405B"/>
<defs>
<filter id="filter0_d_10_66" x="76.7477" y="0.698501" width="263.36" height="263.36" filterUnits="userSpaceOnUse" color-interpolation-filters="sRGB">
<feFlood flood-opacity="0" result="BackgroundImageFix"/>
<feColorMatrix in="SourceAlpha" type="matrix" values="0 0 0 0 0 0 0 0 0 0 0 0 0 0 0 0 0 0 127 0" result="hardAlpha"/>
<feMorphology radius="5.04307" operator="dilate" in="SourceAlpha" result="effect1_dropShadow_10_66"/>
<feOffset dy="-1.68102"/>
<feGaussianBlur stdDeviation="14.2887"/>
<feComposite in2="hardAlpha" operator="out"/>
<feColorMatrix type="matrix" values="0 0 0 0 0.816667 0 0 0 0 0.786042 0 0 0 0 0.786042 0 0 0 0.25 0"/>
<feBlend mode="normal" in2="BackgroundImageFix" result="effect1_dropShadow_10_66"/>
<feBlend mode="normal" in="SourceGraphic" in2="effect1_dropShadow_10_66" result="shape"/>
</filter>
<filter id="filter1_d_10_66" x="356.501" y="181.875" width="248.274" height="332.365" filterUnits="userSpaceOnUse" color-interpolation-filters="sRGB">
<feFlood flood-opacity="0" result="BackgroundImageFix"/>
<feColorMatrix in="SourceAlpha" type="matrix" values="0 0 0 0 0 0 0 0 0 0 0 0 0 0 0 0 0 0 127 0" result="hardAlpha"/>
<feMorphology radius="4.91632" operator="dilate" in="SourceAlpha" result="effect1_dropShadow_10_66"/>
<feOffset dy="-1.63877"/>
<feGaussianBlur stdDeviation="13.9296"/>
<feComposite in2="hardAlpha" operator="out"/>
<feColorMatrix type="matrix" values="0 0 0 0 0.816667 0 0 0 0 0.786042 0 0 0 0 0.786042 0 0 0 0.25 0"/>
<feBlend mode="normal" in2="BackgroundImageFix" result="effect1_dropShadow_10_66"/>
<feBlend mode="normal" in="SourceGraphic" in2="effect1_dropShadow_10_66" result="shape"/>
</filter>
<filter id="filter2_d_10_66" x="0.975113" y="326.869" width="290.913" height="285.035" filterUnits="userSpaceOnUse" color-interpolation-filters="sRGB">
<feFlood flood-opacity="0" result="BackgroundImageFix"/>
<feColorMatrix in="SourceAlpha" type="matrix" values="0 0 0 0 0 0 0 0 0 0 0 0 0 0 0 0 0 0 127 0" result="hardAlpha"/>
<feMorphology radius="5.10373" operator="dilate" in="SourceAlpha" result="effect1_dropShadow_10_66"/>
<feOffset dy="-1.70124"/>
<feGaussianBlur stdDeviation="14.4606"/>
<feComposite in2="hardAlpha" operator="out"/>
<feColorMatrix type="matrix" values="0 0 0 0 0.816667 0 0 0 0 0.786042 0 0 0 0 0.786042 0 0 0 0.25 0"/>
<feBlend mode="normal" in2="BackgroundImageFix" result="effect1_dropShadow_10_66"/>
<feBlend mode="normal" in="SourceGraphic" in2="effect1_dropShadow_10_66" result="shape"/>
</filter>
<linearGradient id="paint0_linear_10_66" x1="242.559" y1="118.333" x2="111.5" y2="468.5" gradientUnits="userSpaceOnUse">
<stop stop-color="#FE9C6F"/>
<stop offset="1" stop-color="#61768D"/>
</linearGradient>
</defs>
</svg>
