<svg xmlns="http://www.w3.org/2000/svg" width="113" height="116" viewBox="0 0 113 116" fill="none">
<g filter="url(#filter0_d_837_23)">
<path d="M48.4736 52.6428C48.6776 51.947 48.8817 51.3092 49.0566 50.6714C49.9021 47.3953 50.7184 44.1193 51.8262 40.9012C53.8378 35.0739 56.1701 29.3626 58.5606 23.6802C61.2136 17.389 63.8083 11.0979 66.4321 4.8067C66.8402 3.792 67.3358 2.83528 67.8314 1.84956C68.0064 1.47267 68.2687 1.12477 68.5603 0.834859C69.0559 0.342002 69.6973 0.544943 69.7556 1.24074C69.8139 1.82057 69.8139 2.4004 69.6973 2.98023C69.26 5.44452 68.8227 7.9088 68.2979 10.3441C66.8985 16.9832 65.47 23.6222 64.3622 30.3193C63.7208 34.2621 63.1669 38.205 62.613 42.1478C62.1174 45.6268 61.7092 49.0768 61.2719 52.5558C61.2136 53.0777 61.1845 53.5995 61.1262 54.2663C61.4177 54.0924 61.5635 54.0054 61.7092 53.8894C62.2923 53.3676 62.9045 52.8457 63.4293 52.2659C69.085 46.4096 75.4696 41.3941 82.2041 36.8134C82.6122 36.5525 83.0204 36.2915 83.4577 36.0596C83.6909 35.9436 83.9533 35.8857 84.1865 35.8567C84.653 35.8277 85.0028 36.1466 85.0028 36.6105C85.0028 36.9584 84.9445 37.3642 84.7696 37.6831C84.3614 38.5239 83.9533 39.3646 83.4285 40.1184C81.6793 42.5537 79.9301 44.989 78.1226 47.3663C75.4113 50.9323 72.6418 54.4693 69.9013 58.0352C69.3766 58.702 68.9101 59.4268 68.4728 60.1806C67.8314 61.2533 67.9481 61.7751 69.0267 62.4419C69.843 62.9348 70.6885 63.3697 71.5631 63.7466C74.7117 65.0802 77.9768 66.1239 81.242 67.1096C89.5508 69.6608 97.772 72.473 105.818 75.7491C106.314 75.952 106.839 76.126 107.334 76.3289C107.538 76.4159 107.713 76.5028 107.888 76.6478C108.267 76.9957 108.151 77.6045 107.655 77.7785C107.48 77.8365 107.276 77.8655 107.101 77.8655C105.148 77.8944 103.195 77.9524 101.241 77.8944C96.2852 77.6915 91.3291 77.1697 86.4022 76.5608C79.1721 75.6911 72.0004 74.5024 64.8869 73.0238C63.9249 72.8209 62.9628 72.676 62.0008 72.502C61.7967 72.473 61.5926 72.444 61.3594 72.473C60.6014 72.473 60.2807 72.647 60.0766 73.4007C59.8142 74.4155 59.581 75.4302 59.4061 76.4449C58.619 80.8226 57.9776 85.2293 57.482 89.665C57.1613 92.5352 56.9281 95.4343 56.5782 98.3045C56.3158 100.566 55.9368 102.798 55.6162 105.06C55.5287 105.552 55.3538 106.045 55.1789 106.509C55.0039 107.002 54.6832 107.437 54.071 107.437C53.5171 107.408 53.1964 107.002 53.0506 106.509C52.7883 105.726 52.5259 104.915 52.4093 104.103C52.1177 102.16 51.8262 100.189 51.7096 98.2465C51.4181 93.4919 51.1848 88.7663 51.0391 84.0117C50.9516 81.1415 51.0391 78.2713 51.0682 75.4012C51.0682 75.1402 51.0682 74.8503 51.0682 74.4734C50.6309 74.5314 50.2519 74.5314 49.8729 74.5894C45.6748 75.2852 41.5642 76.2419 37.4244 77.2276C30.3693 78.8512 23.3141 80.6197 16.1715 82.0402C13.1396 82.6491 10.0785 83.1709 7.01737 83.7217C6.4926 83.8087 5.93869 83.8377 5.41393 83.8957C5.26816 83.8957 5.12239 83.9247 5.00578 83.8957C4.39356 83.8667 4.07287 83.6928 4.01456 83.3159C3.9271 82.823 4.24779 82.5911 4.59763 82.3881C5.38477 81.9533 6.14276 81.5474 6.92991 81.1415C14.364 77.2276 21.9731 73.6617 29.5238 70.0087C33.0514 68.2982 36.5206 66.4138 39.9899 64.5873C40.4272 64.3554 40.8062 64.0945 41.331 63.7755C41.0686 63.4276 40.8645 63.0797 40.6021 62.8188C39.1445 61.2533 37.7451 59.6297 36.1708 58.1802C33.0222 55.281 29.8154 52.4688 26.5793 49.6567C22.6436 46.2356 18.7662 42.7567 15.2095 38.9588C14.4223 38.118 13.6643 37.2193 12.9355 36.3205C12.7314 36.0886 12.5565 35.7987 12.3816 35.5088C12.1484 35.1029 12.1775 34.726 12.4399 34.4651C12.6731 34.2042 13.0521 34.1752 13.4603 34.3781C13.606 34.4361 13.7518 34.5521 13.8976 34.61C15.8509 35.7117 17.7458 36.8714 19.7283 37.9151C25.6173 40.9882 31.5354 44.0613 37.3078 47.3953C40.0774 48.9898 42.9636 50.3235 45.9955 51.3961C46.462 51.5701 46.8701 51.802 47.3074 52.034C47.6864 52.2079 48.0363 52.4109 48.4736 52.6428Z" fill="#EAB308"/>
</g>
<defs>
<filter id="filter0_d_837_23" x="0" y="0.563232" width="112.113" height="114.874" filterUnits="userSpaceOnUse" color-interpolation-filters="sRGB">
<feFlood flood-opacity="0" result="BackgroundImageFix"/>
<feColorMatrix in="SourceAlpha" type="matrix" values="0 0 0 0 0 0 0 0 0 0 0 0 0 0 0 0 0 0 127 0" result="hardAlpha"/>
<feOffset dy="4"/>
<feGaussianBlur stdDeviation="2"/>
<feComposite in2="hardAlpha" operator="out"/>
<feColorMatrix type="matrix" values="0 0 0 0 0 0 0 0 0 0 0 0 0 0 0 0 0 0 0.25 0"/>
<feBlend mode="normal" in2="BackgroundImageFix" result="effect1_dropShadow_837_23"/>
<feBlend mode="normal" in="SourceGraphic" in2="effect1_dropShadow_837_23" result="shape"/>
</filter>
</defs>
</svg>